<svg width="178" height="58" viewBox="0 0 178 58" fill="none" xmlns="http://www.w3.org/2000/svg">
<path d="M0 53.6048L26.3466 26.7826L6.70163 10.646L8.41265 5.62289L86.8501 0.138672L87.6739 5.35011L14.2428 10.2692L34.6482 26.5314L4.37259 58L0 53.6048Z" fill="#EA642B"/>
<path fill-rule="evenodd" clip-rule="evenodd" d="M83.7031 0.355032L87.4915 42.904H92.5642L88.7442 0L83.7031 0.355032Z" fill="#EA642B"/>
<path d="M53.5153 39.9463H48.8716V25.2533L41.799 34.6098L34.7501 25.2533V39.9463H30.1064V16.8372H34.1786L41.799 26.946L49.4432 16.8372H53.5153V39.9463Z" fill="#18181B"/>
<path d="M70.9707 40.299C68.764 40.299 66.7478 39.7661 64.9221 38.7004C63.0963 37.6346 61.6358 36.2006 60.5403 34.3983C59.4608 32.5959 58.921 30.5977 58.921 28.4035C58.921 26.2094 59.4608 24.2189 60.5403 22.4323C61.6358 20.6299 63.0963 19.1959 64.9221 18.1302C66.7478 17.0488 68.764 16.5081 70.9707 16.5081C72.7329 16.5081 74.4158 16.8764 76.0192 17.613C77.6386 18.3496 79.0198 19.384 80.1628 20.7161C81.0995 21.8289 81.798 23.0278 82.2584 24.313C82.7188 25.5981 83.0046 26.9303 83.1157 28.3095L84.1873 39.9699H79.5198L79.377 37.5955L79.4008 37.5484C79.4008 37.5328 79.3849 37.5249 79.3532 37.5249C79.1785 37.5249 78.2815 37.9873 76.6622 38.912C75.0429 39.8366 73.1457 40.299 70.9707 40.299ZM70.9707 35.7383C72.3361 35.7383 73.5823 35.4091 74.7095 34.7509C75.8367 34.077 76.7336 33.1915 77.4004 32.0944C78.0672 30.9817 78.4006 29.7514 78.4006 28.4035C78.4006 27.0557 78.0672 25.8332 77.4004 24.7361C76.7336 23.6234 75.8367 22.7379 74.7095 22.0796C73.5823 21.4214 72.3361 21.0923 70.9707 21.0923C69.6054 21.0923 68.3592 21.4214 67.232 22.0796C66.1207 22.7379 65.2316 23.6234 64.5648 24.7361C63.8981 25.8332 63.5647 27.0557 63.5647 28.4035C63.5647 29.7514 63.8981 30.9817 64.5648 32.0944C65.2316 33.1915 66.1207 34.077 67.232 34.7509C68.3592 35.4091 69.6054 35.7383 70.9707 35.7383Z" fill="#18181B"/>
<path d="M155.572 33.2941H156.372V38.5397H155.535L155.433 37.8985C154.949 38.4101 154.345 38.6659 153.62 38.6659C152.87 38.6659 152.244 38.4037 151.742 37.8791C151.246 37.3545 150.998 36.7005 150.998 35.9169C150.998 35.1268 151.246 34.4727 151.742 33.9546C152.244 33.4301 152.87 33.1678 153.62 33.1678C154.357 33.1678 154.968 33.4268 155.451 33.9449L155.572 33.2941ZM152.513 37.1505C152.829 37.4744 153.223 37.6363 153.694 37.6363C154.171 37.6363 154.562 37.4744 154.866 37.1505C155.176 36.8203 155.33 36.409 155.33 35.9169C155.33 35.4182 155.176 35.007 154.866 34.6832C154.562 34.3594 154.171 34.1975 153.694 34.1975C153.384 34.1975 153.102 34.2719 152.848 34.4209C152.6 34.5698 152.405 34.7771 152.262 35.0426C152.12 35.3016 152.048 35.5931 152.048 35.9169C152.048 36.409 152.203 36.8203 152.513 37.1505Z" fill="#71717A"/>
<path d="M150.609 33.2941V34.2655H148.843V38.5397H147.838V34.2655H146.062V33.2941H150.609Z" fill="#71717A"/>
<path d="M144.157 33.2941H145.17V38.5397H144.157V36.3443H141.832V38.5397H140.81V33.2941H141.832V35.3534H144.157V33.2941Z" fill="#71717A"/>
<path d="M138.938 37.8888C138.43 38.4069 137.792 38.6659 137.023 38.6659C136.254 38.6659 135.613 38.4069 135.098 37.8888C134.59 37.3643 134.336 36.7069 134.336 35.9169C134.336 35.3988 134.451 34.9293 134.68 34.5083C134.916 34.0874 135.238 33.7603 135.647 33.5272C136.062 33.2876 136.521 33.1678 137.023 33.1678C137.525 33.1678 137.981 33.2876 138.39 33.5272C138.805 33.7603 139.128 34.0874 139.357 34.5083C139.592 34.9293 139.71 35.3988 139.71 35.9169C139.71 36.7069 139.453 37.3643 138.938 37.8888ZM137.023 37.6363C137.339 37.6363 137.621 37.565 137.869 37.4225C138.117 37.2736 138.309 37.0696 138.446 36.8106C138.588 36.545 138.66 36.2471 138.66 35.9169C138.66 35.4182 138.505 35.007 138.195 34.6832C137.891 34.3594 137.5 34.1975 137.023 34.1975C136.546 34.1975 136.152 34.3594 135.842 34.6832C135.539 35.007 135.387 35.4182 135.387 35.9169C135.387 36.4155 135.539 36.8267 135.842 37.1505C136.152 37.4744 136.546 37.6363 137.023 37.6363Z" fill="#71717A"/>
<path d="M133.677 38.5397H132.682L132.078 34.9649L130.395 38.4814H130.181L128.507 34.9649L127.903 38.5397H126.908L127.81 33.2941H128.684L130.292 36.6454L131.91 33.2941H132.775L133.677 38.5397Z" fill="#71717A"/>
<path d="M126.248 35.9266C126.248 36.0237 126.242 36.1435 126.23 36.286H122.157C122.219 36.7069 122.387 37.0405 122.659 37.2865C122.938 37.5326 123.282 37.6557 123.691 37.6557C123.89 37.6557 124.076 37.6265 124.249 37.5683C124.423 37.5035 124.575 37.4161 124.705 37.306C124.841 37.1894 124.953 37.0502 125.04 36.8883H126.127C125.929 37.4452 125.613 37.8823 125.179 38.1997C124.745 38.5105 124.249 38.6659 123.691 38.6659C122.954 38.6659 122.337 38.4037 121.841 37.8791C121.351 37.3545 121.107 36.7005 121.107 35.9169C121.107 35.1333 121.351 34.4792 121.841 33.9546C122.337 33.4301 122.954 33.1678 123.691 33.1678C124.193 33.1678 124.64 33.2941 125.03 33.5466C125.421 33.7927 125.721 34.1262 125.932 34.5472C126.143 34.9616 126.248 35.4214 126.248 35.9266ZM123.691 34.1392C123.307 34.1392 122.979 34.2525 122.706 34.4792C122.439 34.7058 122.263 35.0167 122.176 35.4117H125.216C125.154 35.1462 125.052 34.9195 124.909 34.7317C124.767 34.5375 124.59 34.3917 124.379 34.2946C124.175 34.191 123.945 34.1392 123.691 34.1392Z" fill="#71717A"/>
<path d="M117.764 33.1678C118.26 33.1678 118.707 33.2876 119.103 33.5272C119.5 33.7603 119.81 34.0874 120.033 34.5083C120.256 34.9293 120.368 35.3988 120.368 35.9169C120.368 36.7069 120.12 37.3643 119.624 37.8888C119.134 38.4069 118.514 38.6659 117.764 38.6659C117.12 38.6659 116.565 38.4555 116.1 38.0345V40.4242H115.068V33.2941H115.765L115.961 33.9352C116.444 33.4236 117.045 33.1678 117.764 33.1678ZM116.509 37.1505C116.819 37.4744 117.21 37.6363 117.681 37.6363C118.158 37.6363 118.552 37.4744 118.862 37.1505C119.171 36.8203 119.326 36.409 119.326 35.9169C119.326 35.4247 119.171 35.0167 118.862 34.6929C118.552 34.3626 118.161 34.1975 117.69 34.1975C117.38 34.1975 117.098 34.2719 116.844 34.4209C116.59 34.5698 116.391 34.7771 116.249 35.0426C116.112 35.3016 116.044 35.5931 116.044 35.9169C116.044 36.409 116.199 36.8203 116.509 37.1505Z" fill="#71717A"/>
<path d="M110.678 33.2941H111.254V38.5397H110.269V35.2077L107.591 38.5397H106.996V33.2941H107.991V36.5968L110.678 33.2941Z" fill="#71717A"/>
<path d="M177.201 22.6969H178V27.9425H177.163L177.061 27.3013C176.578 27.813 175.973 28.0688 175.248 28.0688C174.498 28.0688 173.872 27.8065 173.37 27.2819C172.874 26.7574 172.626 26.1033 172.626 25.3197C172.626 24.5296 172.874 23.8755 173.37 23.3574C173.872 22.8329 174.498 22.5706 175.248 22.5706C175.986 22.5706 176.596 22.8296 177.08 23.3477L177.201 22.6969ZM174.142 26.5534C174.458 26.8772 174.851 27.0391 175.322 27.0391C175.8 27.0391 176.19 26.8772 176.494 26.5534C176.804 26.2231 176.959 25.8118 176.959 25.3197C176.959 24.821 176.804 24.4098 176.494 24.086C176.19 23.7622 175.8 23.6003 175.322 23.6003C175.013 23.6003 174.731 23.6747 174.476 23.8237C174.228 23.9726 174.033 24.1799 173.891 24.4454C173.748 24.7044 173.677 24.9959 173.677 25.3197C173.677 25.8118 173.832 26.2231 174.142 26.5534Z" fill="#71717A"/>
<path d="M171.053 25.2031C171.171 25.2549 171.276 25.3229 171.369 25.4071C171.468 25.4848 171.552 25.5787 171.62 25.6888C171.688 25.7924 171.741 25.909 171.778 26.0385C171.815 26.168 171.834 26.3008 171.834 26.4368C171.834 26.8642 171.685 27.2236 171.388 27.5151C171.09 27.8 170.718 27.9425 170.272 27.9425H167.65V22.6969H170.235C170.656 22.6969 171 22.8231 171.267 23.0757C171.54 23.3218 171.676 23.6424 171.676 24.0374C171.676 24.2835 171.62 24.5102 171.509 24.7174C171.397 24.9246 171.245 25.0865 171.053 25.2031ZM170.653 24.2123C170.653 24.0309 170.594 23.8852 170.476 23.7751C170.365 23.665 170.216 23.61 170.03 23.61H168.663V24.8145H170.03C170.216 24.8145 170.365 24.7595 170.476 24.6494C170.594 24.5393 170.653 24.3936 170.653 24.2123ZM170.086 27.0002C170.291 27.0002 170.455 26.9387 170.579 26.8156C170.709 26.6926 170.774 26.5372 170.774 26.3494C170.774 26.1551 170.709 25.9964 170.579 25.8734C170.449 25.7503 170.281 25.6888 170.077 25.6888H168.663V27.0002H170.086Z" fill="#71717A"/>
<path d="M166.744 22.6969V23.6683H164.978V27.9425H163.973V23.6683H162.198V22.6969H166.744Z" fill="#71717A"/>
<path d="M159.295 28.0688C158.551 28.0688 157.925 27.8065 157.417 27.2819C156.915 26.7509 156.664 26.0968 156.664 25.3197C156.664 24.5361 156.915 23.882 157.417 23.3574C157.925 22.8329 158.554 22.5706 159.304 22.5706C159.918 22.5706 160.451 22.7519 160.903 23.1146C161.356 23.4772 161.65 23.9597 161.787 24.562H160.764C160.634 24.2641 160.439 24.0309 160.178 23.8626C159.918 23.6877 159.623 23.6003 159.295 23.6003C159.004 23.6003 158.737 23.6747 158.495 23.8237C158.254 23.9726 158.061 24.1799 157.919 24.4454C157.782 24.7044 157.714 24.9959 157.714 25.3197C157.714 25.8054 157.866 26.2134 158.17 26.5436C158.474 26.8739 158.849 27.0391 159.295 27.0391C159.623 27.0391 159.915 26.9516 160.169 26.7768C160.429 26.6019 160.628 26.3526 160.764 26.0288H161.805C161.663 26.644 161.362 27.1394 160.903 27.5151C160.451 27.8842 159.915 28.0688 159.295 28.0688Z" fill="#71717A"/>
<path d="M154.197 24.2511C154.749 24.2511 155.195 24.4227 155.536 24.766C155.877 25.1092 156.047 25.556 156.047 26.1065C156.047 26.6505 155.877 27.0941 155.536 27.4373C155.195 27.7741 154.749 27.9425 154.197 27.9425H152.114V22.6969H153.128V24.2511H154.197ZM154.076 27.0099C154.355 27.0099 154.581 26.929 154.755 26.7671C154.928 26.5987 155.015 26.3785 155.015 26.1065C155.015 25.9252 154.975 25.7665 154.894 25.6305C154.82 25.488 154.711 25.3779 154.569 25.3002C154.426 25.2225 154.262 25.1837 154.076 25.1837H153.128V27.0099H154.076Z" fill="#71717A"/>
<path d="M147.232 22.6969H150.644V27.9425H149.631V23.6294H148.078L147.855 25.9511C147.786 26.6894 147.604 27.2107 147.306 27.5151C147.015 27.8194 146.572 27.9716 145.976 27.9716H145.8V26.9808H146.042C146.531 26.9808 146.807 26.6602 146.869 26.0191L147.232 22.6969Z" fill="#71717A"/>
<path d="M145.352 25.3294C145.352 25.4265 145.346 25.5463 145.334 25.6888H141.261C141.323 26.1097 141.491 26.4433 141.763 26.6894C142.042 26.9354 142.386 27.0585 142.796 27.0585C142.994 27.0585 143.18 27.0293 143.353 26.9711C143.527 26.9063 143.679 26.8189 143.809 26.7088C143.945 26.5922 144.057 26.453 144.144 26.2911H145.232C145.033 26.848 144.717 27.2852 144.283 27.6025C143.849 27.9133 143.353 28.0688 142.796 28.0688C142.058 28.0688 141.441 27.8065 140.945 27.2819C140.456 26.7574 140.211 26.1033 140.211 25.3197C140.211 24.5361 140.456 23.882 140.945 23.3574C141.441 22.8329 142.058 22.5706 142.796 22.5706C143.298 22.5706 143.744 22.6969 144.134 22.9494C144.525 23.1955 144.826 23.529 145.036 23.95C145.247 24.3644 145.352 24.8242 145.352 25.3294ZM142.796 23.542C142.411 23.542 142.083 23.6553 141.81 23.882C141.543 24.1086 141.367 24.4195 141.28 24.8145H144.32C144.258 24.549 144.156 24.3224 144.014 24.1345C143.871 23.9403 143.694 23.7946 143.484 23.6974C143.279 23.5938 143.05 23.542 142.796 23.542Z" fill="#71717A"/>
<path d="M139.822 22.6969V23.6683H138.056V27.9425H137.051V23.6683H135.276V22.6969H139.822Z" fill="#71717A"/>
<path d="M133.804 22.6969H134.381V27.9425H133.395V24.6105L130.718 27.9425H130.123V22.6969H131.117V25.9997L133.804 22.6969Z" fill="#71717A"/>
<path d="M128.251 27.2916C127.743 27.8097 127.105 28.0688 126.336 28.0688C125.567 28.0688 124.926 27.8097 124.411 27.2916C123.903 26.7671 123.649 26.1097 123.649 25.3197C123.649 24.8016 123.764 24.3321 123.993 23.9111C124.228 23.4902 124.551 23.1631 124.96 22.93C125.375 22.6904 125.834 22.5706 126.336 22.5706C126.838 22.5706 127.294 22.6904 127.703 22.93C128.118 23.1631 128.44 23.4902 128.67 23.9111C128.905 24.3321 129.023 24.8016 129.023 25.3197C129.023 26.1097 128.766 26.7671 128.251 27.2916ZM126.336 27.0391C126.652 27.0391 126.934 26.9678 127.182 26.8253C127.43 26.6764 127.622 26.4724 127.759 26.2134C127.901 25.9478 127.972 25.6499 127.972 25.3197C127.972 24.821 127.817 24.4098 127.508 24.086C127.204 23.7622 126.813 23.6003 126.336 23.6003C125.859 23.6003 125.465 23.7622 125.155 24.086C124.851 24.4098 124.7 24.821 124.7 25.3197C124.7 25.8183 124.851 26.2296 125.155 26.5534C125.465 26.8772 125.859 27.0391 126.336 27.0391Z" fill="#71717A"/>
<path d="M120.307 22.5706C120.803 22.5706 121.249 22.6904 121.646 22.93C122.042 23.1631 122.352 23.4902 122.575 23.9111C122.799 24.3321 122.91 24.8016 122.91 25.3197C122.91 26.1097 122.662 26.7671 122.166 27.2916C121.677 27.8097 121.057 28.0688 120.307 28.0688C119.662 28.0688 119.107 27.8583 118.642 27.4373V29.827H117.61V22.6969H118.308L118.503 23.338C118.986 22.8264 119.588 22.5706 120.307 22.5706ZM119.052 26.5534C119.361 26.8772 119.752 27.0391 120.223 27.0391C120.7 27.0391 121.094 26.8772 121.404 26.5534C121.714 26.2231 121.869 25.8118 121.869 25.3197C121.869 24.8275 121.714 24.4195 121.404 24.0957C121.094 23.7654 120.703 23.6003 120.232 23.6003C119.922 23.6003 119.64 23.6747 119.386 23.8237C119.132 23.9726 118.934 24.1799 118.791 24.4454C118.655 24.7044 118.587 24.9959 118.587 25.3197C118.587 25.8118 118.742 26.2231 119.052 26.5534Z" fill="#71717A"/>
<path d="M116.705 22.6969V23.6683H114.938V27.9425H113.934V23.6683H112.158V22.6969H116.705Z" fill="#71717A"/>
<path d="M109.255 28.0688C108.511 28.0688 107.885 27.8065 107.377 27.2819C106.875 26.7509 106.624 26.0968 106.624 25.3197C106.624 24.5361 106.875 23.882 107.377 23.3574C107.885 22.8329 108.515 22.5706 109.265 22.5706C109.878 22.5706 110.411 22.7519 110.864 23.1146C111.316 23.4772 111.611 23.9597 111.747 24.562H110.724C110.594 24.2641 110.399 24.0309 110.139 23.8626C109.878 23.6877 109.584 23.6003 109.255 23.6003C108.964 23.6003 108.697 23.6747 108.456 23.8237C108.214 23.9726 108.022 24.1799 107.879 24.4454C107.743 24.7044 107.675 24.9959 107.675 25.3197C107.675 25.8054 107.827 26.2134 108.13 26.5436C108.434 26.8739 108.809 27.0391 109.255 27.0391C109.584 27.0391 109.875 26.9516 110.129 26.7768C110.39 26.6019 110.588 26.3526 110.724 26.0288H111.766C111.623 26.644 111.323 27.1394 110.864 27.5151C110.411 27.8842 109.875 28.0688 109.255 28.0688Z" fill="#71717A"/>
<path d="M136.332 12.0997H137.131V17.3453H136.295L136.192 16.7041C135.709 17.2158 135.105 17.4716 134.379 17.4716C133.629 17.4716 133.003 17.2093 132.501 16.6847C132.005 16.1602 131.757 15.5061 131.757 14.7225C131.757 13.9324 132.005 13.2783 132.501 12.7602C133.003 12.2357 133.629 11.9734 134.379 11.9734C135.117 11.9734 135.727 12.2324 136.211 12.7505L136.332 12.0997ZM133.273 15.9562C133.589 16.28 133.983 16.4419 134.454 16.4419C134.931 16.4419 135.321 16.28 135.625 15.9562C135.935 15.6259 136.09 15.2147 136.09 14.7225C136.09 14.2238 135.935 13.8126 135.625 13.4888C135.321 13.165 134.931 13.0031 134.454 13.0031C134.144 13.0031 133.862 13.0776 133.608 13.2265C133.36 13.3754 133.164 13.5827 133.022 13.8482C132.879 14.1072 132.808 14.3987 132.808 14.7225C132.808 15.2147 132.963 15.6259 133.273 15.9562Z" fill="#71717A"/>
<path d="M130.318 17.3453L128.849 15.111H128.254V17.3453H127.259V15.111H126.655L125.195 17.3453H123.94L125.8 14.5865L124.126 12.0997H125.307L126.664 14.1493H127.259V12.0997H128.254V14.1493H128.849L130.198 12.0997H131.388L129.714 14.5865L131.574 17.3453H130.318Z" fill="#71717A"/>
<path d="M121.133 11.9734C121.629 11.9734 122.075 12.0932 122.472 12.3328C122.869 12.5659 123.179 12.893 123.402 13.3139C123.625 13.7349 123.736 14.2044 123.736 14.7225C123.736 15.5126 123.488 16.1699 122.993 16.6944C122.503 17.2125 121.883 17.4716 121.133 17.4716C120.488 17.4716 119.934 17.2611 119.469 16.8401V19.2298H118.437V12.0997H119.134L119.329 12.7408C119.813 12.2292 120.414 11.9734 121.133 11.9734ZM119.878 15.9562C120.188 16.28 120.578 16.4419 121.049 16.4419C121.527 16.4419 121.92 16.28 122.23 15.9562C122.54 15.6259 122.695 15.2147 122.695 14.7225C122.695 14.2303 122.54 13.8223 122.23 13.4985C121.92 13.1682 121.53 13.0031 121.059 13.0031C120.749 13.0031 120.467 13.0776 120.213 13.2265C119.958 13.3754 119.76 13.5827 119.617 13.8482C119.481 14.1072 119.413 14.3987 119.413 14.7225C119.413 15.2147 119.568 15.6259 119.878 15.9562Z" fill="#71717A"/>
<path d="M116.389 12.0997H116.966V17.3453H115.98V14.0133L113.302 17.3453H112.707V12.0997H113.702V15.4025L116.389 12.0997Z" fill="#71717A"/>
<path d="M109.544 13.0711C110.157 13.0711 110.659 13.2718 111.05 13.6733C111.447 14.0749 111.645 14.5832 111.645 15.1985C111.645 15.8202 111.443 16.335 111.041 16.743C110.644 17.1445 110.142 17.3453 109.534 17.3453H107.089V10.5454H111.152V11.5848H108.149V13.0711H109.544ZM109.451 16.2864C109.773 16.2864 110.036 16.1861 110.241 15.9853C110.445 15.7781 110.548 15.5158 110.548 15.1985C110.548 14.9912 110.501 14.8067 110.408 14.6448C110.315 14.4829 110.185 14.3566 110.018 14.2659C109.857 14.1752 109.668 14.1299 109.451 14.1299H108.149V16.2864H109.451Z" fill="#71717A"/>
</svg>
