<svg xmlns="http://www.w3.org/2000/svg" width="98" height="57" viewBox="0 0 98 57" fill="none">
  <path fill-rule="evenodd" clip-rule="evenodd" d="M92 5H6C5.61647 5 5 5.61586 5 6V41L14.5831 50V57L0 42.3934V40.342V38.6901V5.56442C0 2.49127 2.48727 0 5.55548 0H92.4445C95.5127 0 98 2.49128 98 5.56442V44.5153C98 47.5885 95.5682 50 92.5 50H14.5831V45H92C92.3835 45 93 44.3841 93 44V6C93 5.61586 92.3835 5 92 5Z" fill="#EA642B"/>
  <path d="M29 28H25.6844V23.1987H23.0823L19.8612 28H16L19.6723 22.6444C17.5249 21.8494 16.4512 20.2838 16.4512 17.9477C16.4512 16.3996 16.9548 15.1897 17.9621 14.318C18.9693 13.4393 20.3543 13 22.117 13H29V28ZM25.6844 20.2908V15.9812H22.4003C20.6656 15.9812 19.7982 16.7099 19.7982 18.1674C19.7982 18.8089 20.0186 19.3215 20.4592 19.705C20.9139 20.0955 21.54 20.2908 22.3374 20.2908H25.6844Z" fill="#EA642B"/>
  <path d="M73.1653 27.9972H75.5558V29.2098C76.225 28.2991 77.0985 27.8438 78.1762 27.8438C79.2183 27.8438 80.0994 28.2172 80.8196 28.9642C81.6063 29.7828 81.9996 30.87 81.9996 32.2258C81.9996 33.5714 81.6114 34.6483 80.835 35.4567C80.1147 36.2037 79.2285 36.5771 78.1762 36.5771C77.1291 36.5771 76.2556 36.1602 75.5558 35.3262V38.9408H73.1653V27.9972ZM77.5633 34.5511C78.1354 34.5511 78.6155 34.3388 79.0037 33.9141C79.4124 33.4742 79.6167 32.9011 79.6167 32.1951C79.6167 31.5095 79.4124 30.9467 79.0037 30.5067C78.6155 30.0821 78.1354 29.8698 77.5633 29.8698C76.9912 29.8698 76.511 30.0847 76.1228 30.5144C75.7193 30.9595 75.5175 31.53 75.5175 32.2258C75.5175 32.9114 75.7193 33.4742 76.1228 33.9141C76.511 34.3388 76.9912 34.5511 77.5633 34.5511Z" fill="#18181B"/>
  <path d="M68.1545 36.6155C66.8826 36.6155 65.8355 36.2088 65.0131 35.3953C64.1805 34.5767 63.7642 33.5202 63.7642 32.2258C63.7642 31.003 64.1524 29.9721 64.9288 29.133C65.7205 28.2735 66.7191 27.8438 67.9246 27.8438C69.2527 27.8438 70.2845 28.3068 71.0201 29.2328C71.6841 30.0667 72.0161 31.1284 72.0161 32.4177C72.0161 32.5404 72.0059 32.7502 71.9855 33.0469H66.1317C66.3718 34.1469 67.0588 34.6969 68.1928 34.6969C68.9284 34.6969 69.6077 34.4079 70.2309 33.8297L71.5947 35.0423C70.7519 36.0911 69.6052 36.6155 68.1545 36.6155ZM69.6946 31.5505C69.623 31.003 69.4366 30.5707 69.1352 30.2535C68.8185 29.9261 68.415 29.7623 67.9246 29.7623C66.9184 29.7623 66.3105 30.3584 66.1011 31.5505H69.6946Z" fill="#18181B"/>
  <path d="M63.4989 30.0462H61.0088V36.4236H58.5876V30.0462H56.0974V27.9972H63.4989V30.0462Z" fill="#18181B"/>
  <path d="M52.5537 36.6155C51.3023 36.6155 50.2577 36.1883 49.42 35.3339C48.5925 34.4897 48.1787 33.4537 48.1787 32.2258C48.1787 31.0081 48.5925 29.9772 49.42 29.133C50.2628 28.2735 51.3201 27.8438 52.592 27.8438C53.9405 27.8438 55.0541 28.3349 55.9327 29.3172L54.5305 30.737C53.9431 30.1793 53.2893 29.9005 52.569 29.9005C51.9816 29.9005 51.4938 30.1281 51.1056 30.5835C50.7225 31.0337 50.5309 31.5812 50.5309 32.2258C50.5309 32.8858 50.7251 33.4358 51.1133 33.8758C51.5117 34.326 52.0301 34.5511 52.6686 34.5511C53.3225 34.5511 53.9661 34.2544 54.5995 33.6609L55.994 35.073C55.0592 36.1013 53.9124 36.6155 52.5537 36.6155Z" fill="#18181B"/>
  <path d="M42.3178 36.5774C41.4852 36.5774 40.8058 36.3548 40.2797 35.9097C39.7127 35.4339 39.4292 34.7893 39.4292 33.9758C39.4292 33.0856 39.7433 32.4077 40.3716 31.9421C40.9642 31.5021 41.7789 31.2821 42.8158 31.2821C43.5156 31.2821 44.2001 31.3972 44.8692 31.6274V31.4893C44.8692 30.4609 44.269 29.9468 43.0687 29.9468C42.3433 29.9468 41.5695 30.1003 40.7471 30.4072L40.1494 28.5807C41.171 28.1305 42.259 27.9054 43.4134 27.9054C44.6802 27.9054 45.6278 28.22 46.2561 28.8493C46.8588 29.4582 47.1602 30.3535 47.1602 31.5354V36.4239H44.8539V35.5107C44.2154 36.2218 43.37 36.5774 42.3178 36.5774ZM43.038 34.9274C43.5897 34.9274 44.0392 34.7893 44.3865 34.513C44.7288 34.2418 44.8999 33.8888 44.8999 33.4539V33.0319C44.4504 32.8221 43.9447 32.7172 43.3828 32.7172C42.2846 32.7172 41.7355 33.1137 41.7355 33.9067C41.7355 34.2239 41.8555 34.4746 42.0956 34.6588C42.3305 34.8379 42.6447 34.9274 43.038 34.9274Z" fill="#EA642B"/>
  <path d="M29 27.9969H31.4212L33.6968 31.5348L36.0031 27.9969H38.4166V36.4234H36.0031V31.366L33.6662 34.8194L31.3522 31.412V36.4234H29V27.9969Z" fill="#EA642B"/>
</svg>