<svg width="196" height="64" viewBox="0 0 196 64" fill="none" xmlns="http://www.w3.org/2000/svg">
<path d="M0 59.1501L29.0109 29.5532L7.37933 11.7473L9.26336 6.20456L95.6327 0.153011L96.5398 5.90356L15.683 11.3316L38.1519 29.276L4.81476 64L0 59.1501Z" fill="#EA642B"/>
<path d="M92.1679 0.391759L96.3394 47.3423H101.925L97.7188 0L92.1679 0.391759Z" fill="#EA642B"/>
<path d="M58.9264 44.0788H53.8132V27.8658L46.0253 38.1902L38.2636 27.8658V44.0788H33.1504V18.579H37.6343L46.0253 29.7335L54.4425 18.579H58.9264V44.0788Z" fill="#18181B"/>
<path d="M78.147 44.4679C75.7171 44.4679 73.497 43.8799 71.4867 42.7039C69.4763 41.5279 67.8681 39.9455 66.6619 37.9567C65.4731 35.9679 64.8788 33.763 64.8788 31.3418C64.8788 28.9207 65.4731 26.7244 66.6619 24.7529C67.8681 22.7641 69.4763 21.1817 71.4867 20.0057C73.497 18.8125 75.7171 18.2158 78.147 18.2158C80.0874 18.2158 81.9404 18.6222 83.706 19.435C85.4891 20.2478 87.01 21.3892 88.2686 22.8592C89.3 24.0871 90.0692 25.4101 90.5762 26.8282C91.0831 28.2462 91.3978 29.7162 91.5201 31.2381L92.7001 44.1047H87.5607L87.4033 41.4847L87.4295 41.4328C87.4295 41.4155 87.4121 41.4069 87.3771 41.4069C87.1848 41.4069 86.1971 41.917 84.414 42.9374C82.631 43.9577 80.5419 44.4679 78.147 44.4679ZM78.147 39.4354C79.6504 39.4354 81.0227 39.0722 82.2638 38.3459C83.505 37.6022 84.4927 36.6251 85.2269 35.4145C85.9611 34.1867 86.3282 32.8291 86.3282 31.3418C86.3282 29.8546 85.9611 28.5057 85.2269 27.2951C84.4927 26.0672 83.505 25.0901 82.2638 24.3638C81.0227 23.6374 79.6504 23.2743 78.147 23.2743C76.6436 23.2743 75.2714 23.6374 74.0302 24.3638C72.8065 25.0901 71.8276 26.0672 71.0934 27.2951C70.3591 28.5057 69.992 29.8546 69.992 31.3418C69.992 32.8291 70.3591 34.1867 71.0934 35.4145C71.8276 36.6251 72.8065 37.6022 74.0302 38.3459C75.2714 39.0722 76.6436 39.4354 78.147 39.4354Z" fill="#18181B"/>
<path d="M171.304 36.7383H172.185V42.5266H171.263L171.15 41.8191C170.618 42.3836 169.953 42.6659 169.154 42.6659C168.328 42.6659 167.639 42.3765 167.086 41.7977C166.54 41.2188 166.267 40.4971 166.267 39.6324C166.267 38.7606 166.54 38.0389 167.086 37.4672C167.639 36.8884 168.328 36.599 169.154 36.599C169.966 36.599 170.639 36.8848 171.171 37.4565L171.304 36.7383ZM167.936 40.9937C168.284 41.351 168.717 41.5297 169.236 41.5297C169.761 41.5297 170.191 41.351 170.526 40.9937C170.867 40.6293 171.038 40.1755 171.038 39.6324C171.038 39.0822 170.867 38.6284 170.526 38.2711C170.191 37.9138 169.761 37.7352 169.236 37.7352C168.895 37.7352 168.584 37.8173 168.304 37.9817C168.031 38.1461 167.816 38.3747 167.659 38.6677C167.502 38.9536 167.424 39.2751 167.424 39.6324C167.424 40.1755 167.594 40.6293 167.936 40.9937Z" fill="#71717A"/>
<path d="M165.839 36.7383V37.8102H163.894V42.5266H162.788V37.8102H160.833V36.7383H165.839Z" fill="#71717A"/>
<path d="M158.734 36.7383H159.85V42.5266H158.734V40.1041H156.175V42.5266H155.049V36.7383H156.175V39.0107H158.734V36.7383Z" fill="#71717A"/>
<path d="M152.988 41.8084C152.428 42.3801 151.725 42.6659 150.879 42.6659C150.033 42.6659 149.326 42.3801 148.76 41.8084C148.2 41.2296 147.92 40.5042 147.92 39.6324C147.92 39.0608 148.047 38.5427 148.299 38.0782C148.559 37.6137 148.913 37.2528 149.364 36.9956C149.821 36.7312 150.326 36.599 150.879 36.599C151.432 36.599 151.934 36.7312 152.384 36.9956C152.841 37.2528 153.196 37.6137 153.449 38.0782C153.708 38.5427 153.838 39.0608 153.838 39.6324C153.838 40.5042 153.555 41.2296 152.988 41.8084ZM150.879 41.5297C151.227 41.5297 151.538 41.4511 151.811 41.2939C152.084 41.1295 152.295 40.9044 152.446 40.6186C152.603 40.3256 152.681 39.9969 152.681 39.6324C152.681 39.0822 152.51 38.6284 152.169 38.2711C151.835 37.9138 151.405 37.7352 150.879 37.7352C150.354 37.7352 149.92 37.9138 149.579 38.2711C149.244 38.6284 149.077 39.0822 149.077 39.6324C149.077 40.1827 149.244 40.6364 149.579 40.9937C149.92 41.351 150.354 41.5297 150.879 41.5297Z" fill="#71717A"/>
<path d="M147.194 42.5266H146.099L145.433 38.582L143.58 42.4622H143.345L141.502 38.582L140.837 42.5266H139.741L140.734 36.7383H141.697L143.468 40.4364L145.249 36.7383H146.201L147.194 42.5266Z" fill="#71717A"/>
<path d="M139.015 39.6432C139.015 39.7503 139.008 39.8825 138.994 40.0398H134.51C134.578 40.5042 134.762 40.8723 135.063 41.1438C135.37 41.4154 135.749 41.5511 136.199 41.5511C136.418 41.5511 136.622 41.519 136.814 41.4547C137.005 41.3832 137.172 41.2867 137.315 41.1653C137.465 41.0366 137.588 40.883 137.684 40.7043H138.882C138.663 41.3189 138.315 41.8012 137.837 42.1514C137.36 42.4944 136.814 42.6659 136.199 42.6659C135.387 42.6659 134.708 42.3765 134.162 41.7977C133.623 41.2188 133.353 40.4971 133.353 39.6324C133.353 38.7678 133.623 38.046 134.162 37.4672C134.708 36.8884 135.387 36.599 136.199 36.599C136.752 36.599 137.244 36.7383 137.674 37.017C138.104 37.2885 138.435 37.6566 138.667 38.1211C138.899 38.5784 139.015 39.0858 139.015 39.6432ZM136.199 37.6709C135.776 37.6709 135.414 37.7959 135.114 38.046C134.821 38.2961 134.626 38.6391 134.53 39.075H137.878C137.81 38.7821 137.697 38.5319 137.54 38.3247C137.383 38.1103 137.189 37.9496 136.957 37.8424C136.732 37.728 136.479 37.6709 136.199 37.6709Z" fill="#71717A"/>
<path d="M129.673 36.599C130.219 36.599 130.71 36.7312 131.147 36.9956C131.584 37.2528 131.925 37.6137 132.171 38.0782C132.417 38.5427 132.54 39.0608 132.54 39.6324C132.54 40.5042 132.267 41.2296 131.721 41.8084C131.181 42.3801 130.499 42.6659 129.673 42.6659C128.963 42.6659 128.352 42.4337 127.84 41.9692V44.606H126.704V36.7383H127.472L127.687 37.4458C128.219 36.8812 128.881 36.599 129.673 36.599ZM128.291 40.9937C128.632 41.351 129.062 41.5297 129.581 41.5297C130.106 41.5297 130.54 41.351 130.881 40.9937C131.222 40.6293 131.393 40.1755 131.393 39.6324C131.393 39.0893 131.222 38.6391 130.881 38.2818C130.54 37.9174 130.11 37.7352 129.591 37.7352C129.25 37.7352 128.939 37.8173 128.659 37.9817C128.38 38.1461 128.161 38.3747 128.004 38.6677C127.854 38.9536 127.779 39.2751 127.779 39.6324C127.779 40.1755 127.95 40.6293 128.291 40.9937Z" fill="#71717A"/>
<path d="M121.87 36.7383H122.505V42.5266H121.419V38.8499L118.471 42.5266H117.816V36.7383H118.911V40.3828L121.87 36.7383Z" fill="#71717A"/>
<path d="M195.12 25.0448H196V30.8331H195.079L194.966 30.1257C194.434 30.6902 193.768 30.9725 192.97 30.9725C192.144 30.9725 191.454 30.683 190.901 30.1042C190.355 29.5254 190.082 28.8036 190.082 27.939C190.082 27.0672 190.355 26.3454 190.901 25.7737C191.454 25.1949 192.144 24.9055 192.97 24.9055C193.782 24.9055 194.454 25.1913 194.986 25.763L195.12 25.0448ZM191.751 29.3003C192.099 29.6576 192.533 29.8362 193.051 29.8362C193.577 29.8362 194.007 29.6576 194.341 29.3003C194.683 28.9358 194.853 28.4821 194.853 27.939C194.853 27.3887 194.683 26.935 194.341 26.5777C194.007 26.2204 193.577 26.0417 193.051 26.0417C192.71 26.0417 192.4 26.1239 192.12 26.2883C191.847 26.4526 191.632 26.6813 191.475 26.9743C191.318 27.2601 191.239 27.5817 191.239 27.939C191.239 28.4821 191.41 28.9358 191.751 29.3003Z" fill="#71717A"/>
<path d="M188.35 27.8104C188.48 27.8675 188.596 27.9426 188.698 28.0354C188.808 28.1212 188.9 28.2248 188.975 28.3463C189.05 28.4606 189.108 28.5893 189.149 28.7322C189.19 28.8751 189.21 29.0216 189.21 29.1717C189.21 29.6433 189.046 30.0399 188.719 30.3615C188.391 30.6759 187.982 30.8331 187.49 30.8331H184.603V25.0448H187.449C187.913 25.0448 188.292 25.1842 188.586 25.4629C188.886 25.7344 189.036 26.0882 189.036 26.5241C189.036 26.7956 188.975 27.0457 188.852 27.2744C188.729 27.5031 188.562 27.6817 188.35 27.8104ZM187.91 26.717C187.91 26.5169 187.845 26.3561 187.715 26.2347C187.593 26.1132 187.429 26.0524 187.224 26.0524H185.719V27.3816H187.224C187.429 27.3816 187.593 27.3208 187.715 27.1994C187.845 27.0779 187.91 26.9171 187.91 26.717ZM187.285 29.7934C187.511 29.7934 187.692 29.7255 187.828 29.5897C187.971 29.4539 188.043 29.2824 188.043 29.0752C188.043 28.8608 187.971 28.6857 187.828 28.55C187.685 28.4142 187.5 28.3463 187.275 28.3463H185.719V29.7934H187.285Z" fill="#71717A"/>
<path d="M183.606 25.0448V26.1167H181.66V30.8331H180.555V26.1167H178.599V25.0448H183.606Z" fill="#71717A"/>
<path d="M175.403 30.9725C174.584 30.9725 173.895 30.683 173.335 30.1042C172.782 29.5182 172.506 28.7965 172.506 27.939C172.506 27.0743 172.782 26.3526 173.335 25.7737C173.895 25.1949 174.587 24.9055 175.413 24.9055C176.089 24.9055 176.676 25.1056 177.174 25.5058C177.673 25.9059 177.997 26.4383 178.147 27.1029H177.021C176.877 26.7742 176.662 26.5169 176.376 26.3311C176.089 26.1382 175.765 26.0417 175.403 26.0417C175.082 26.0417 174.789 26.1239 174.523 26.2883C174.256 26.4526 174.045 26.6813 173.888 26.9743C173.738 27.2601 173.663 27.5817 173.663 27.939C173.663 28.4749 173.83 28.9251 174.164 29.2896C174.499 29.654 174.912 29.8362 175.403 29.8362C175.765 29.8362 176.086 29.7398 176.365 29.5468C176.652 29.3539 176.871 29.0788 177.021 28.7215H178.167C178.01 29.4003 177.679 29.947 177.174 30.3615C176.676 30.7688 176.086 30.9725 175.403 30.9725Z" fill="#71717A"/>
<path d="M169.79 26.7599C170.397 26.7599 170.888 26.9493 171.264 27.328C171.639 27.7067 171.827 28.1998 171.827 28.8072C171.827 29.4075 171.639 29.897 171.264 30.2757C170.888 30.6473 170.397 30.8331 169.79 30.8331H167.496V25.0448H168.612V26.7599H169.79ZM169.656 29.8041C169.964 29.8041 170.213 29.7148 170.404 29.5361C170.595 29.3503 170.691 29.1073 170.691 28.8072C170.691 28.6071 170.646 28.4321 170.557 28.282C170.476 28.1248 170.356 28.0033 170.199 27.9175C170.042 27.8318 169.861 27.7889 169.656 27.7889H168.612V29.8041H169.656Z" fill="#71717A"/>
<path d="M162.12 25.0448H165.877V30.8331H164.761V26.0739H163.052L162.806 28.6357C162.731 29.4504 162.53 30.0256 162.202 30.3615C161.881 30.6973 161.393 30.8653 160.738 30.8653H160.543V29.7719H160.81C161.349 29.7719 161.653 29.4182 161.721 28.7107L162.12 25.0448Z" fill="#71717A"/>
<path d="M160.051 27.9497C160.051 28.0569 160.044 28.1891 160.03 28.3463H155.546C155.614 28.8108 155.799 29.1788 156.099 29.4504C156.406 29.7219 156.785 29.8577 157.235 29.8577C157.454 29.8577 157.658 29.8255 157.85 29.7612C158.041 29.6897 158.208 29.5933 158.351 29.4718C158.501 29.3432 158.624 29.1895 158.72 29.0109H159.918C159.699 29.6254 159.351 30.1078 158.873 30.4579C158.396 30.801 157.85 30.9725 157.235 30.9725C156.423 30.9725 155.744 30.683 155.198 30.1042C154.659 29.5254 154.389 28.8036 154.389 27.939C154.389 27.0743 154.659 26.3526 155.198 25.7737C155.744 25.1949 156.423 24.9055 157.235 24.9055C157.788 24.9055 158.28 25.0448 158.71 25.3235C159.14 25.5951 159.471 25.9631 159.703 26.4276C159.935 26.8849 160.051 27.3923 160.051 27.9497ZM157.235 25.9774C156.812 25.9774 156.45 26.1025 156.15 26.3526C155.857 26.6027 155.662 26.9457 155.566 27.3816H158.914C158.846 27.0886 158.733 26.8385 158.576 26.6313C158.42 26.4169 158.225 26.2561 157.993 26.1489C157.768 26.0346 157.515 25.9774 157.235 25.9774Z" fill="#71717A"/>
<path d="M153.961 25.0448V26.1167H152.016V30.8331H150.91V26.1167H148.955V25.0448H153.961Z" fill="#71717A"/>
<path d="M147.335 25.0448H147.97V30.8331H146.885V27.1565L143.936 30.8331H143.281V25.0448H144.376V28.6893L147.335 25.0448Z" fill="#71717A"/>
<path d="M141.22 30.1149C140.661 30.6866 139.958 30.9725 139.111 30.9725C138.265 30.9725 137.559 30.6866 136.992 30.1149C136.432 29.5361 136.153 28.8108 136.153 27.939C136.153 27.3673 136.279 26.8492 136.531 26.3847C136.791 25.9202 137.146 25.5594 137.596 25.3021C138.053 25.0377 138.558 24.9055 139.111 24.9055C139.664 24.9055 140.166 25.0377 140.616 25.3021C141.074 25.5594 141.429 25.9202 141.681 26.3847C141.94 26.8492 142.07 27.3673 142.07 27.939C142.07 28.8108 141.787 29.5361 141.22 30.1149ZM139.111 29.8362C139.459 29.8362 139.77 29.7576 140.043 29.6004C140.316 29.4361 140.528 29.211 140.678 28.9251C140.835 28.6321 140.913 28.3034 140.913 27.939C140.913 27.3887 140.743 26.935 140.401 26.5777C140.067 26.2204 139.637 26.0417 139.111 26.0417C138.586 26.0417 138.152 26.2204 137.811 26.5777C137.477 26.935 137.309 27.3887 137.309 27.939C137.309 28.4892 137.477 28.943 137.811 29.3003C138.152 29.6576 138.586 29.8362 139.111 29.8362Z" fill="#71717A"/>
<path d="M132.472 24.9055C133.018 24.9055 133.51 25.0377 133.947 25.3021C134.383 25.5594 134.725 25.9202 134.97 26.3847C135.216 26.8492 135.339 27.3673 135.339 27.939C135.339 28.8108 135.066 29.5361 134.52 30.1149C133.981 30.6866 133.298 30.9725 132.472 30.9725C131.763 30.9725 131.152 30.7402 130.64 30.2757V32.9126H129.503V25.0448H130.271L130.486 25.7523C131.019 25.1878 131.681 24.9055 132.472 24.9055ZM131.09 29.3003C131.432 29.6576 131.862 29.8362 132.38 29.8362C132.906 29.8362 133.339 29.6576 133.68 29.3003C134.022 28.9358 134.192 28.4821 134.192 27.939C134.192 27.3959 134.022 26.9457 133.68 26.5884C133.339 26.2239 132.909 26.0417 132.39 26.0417C132.049 26.0417 131.739 26.1239 131.459 26.2883C131.179 26.4526 130.961 26.6813 130.804 26.9743C130.653 27.2601 130.578 27.5817 130.578 27.939C130.578 28.4821 130.749 28.9358 131.09 29.3003Z" fill="#71717A"/>
<path d="M128.506 25.0448V26.1167H126.561V30.8331H125.455V26.1167H123.5V25.0448H128.506Z" fill="#71717A"/>
<path d="M120.303 30.9725C119.484 30.9725 118.795 30.683 118.235 30.1042C117.682 29.5182 117.406 28.7965 117.406 27.939C117.406 27.0743 117.682 26.3526 118.235 25.7737C118.795 25.1949 119.488 24.9055 120.314 24.9055C120.989 24.9055 121.576 25.1056 122.075 25.5058C122.573 25.9059 122.897 26.4383 123.047 27.1029H121.921C121.778 26.7742 121.563 26.5169 121.276 26.3311C120.989 26.1382 120.665 26.0417 120.303 26.0417C119.983 26.0417 119.689 26.1239 119.423 26.2883C119.157 26.4526 118.945 26.6813 118.788 26.9743C118.638 27.2601 118.563 27.5817 118.563 27.939C118.563 28.4749 118.73 28.9251 119.065 29.2896C119.399 29.654 119.812 29.8362 120.303 29.8362C120.665 29.8362 120.986 29.7398 121.266 29.5468C121.552 29.3539 121.771 29.0788 121.921 28.7215H123.068C122.911 29.4003 122.58 29.947 122.075 30.3615C121.576 30.7688 120.986 30.9725 120.303 30.9725Z" fill="#71717A"/>
<path d="M150.118 13.3514H150.998V19.1397H150.077L149.964 18.4322C149.432 18.9967 148.767 19.279 147.968 19.279C147.142 19.279 146.453 18.9896 145.9 18.4108C145.354 17.8319 145.081 17.1102 145.081 16.2455C145.081 15.3737 145.354 14.652 145.9 14.0803C146.453 13.5015 147.142 13.212 147.968 13.212C148.78 13.212 149.453 13.4979 149.985 14.0696L150.118 13.3514ZM146.75 17.6068C147.098 17.9641 147.531 18.1428 148.05 18.1428C148.575 18.1428 149.005 17.9641 149.34 17.6068C149.681 17.2424 149.852 16.7886 149.852 16.2455C149.852 15.6953 149.681 15.2415 149.34 14.8842C149.005 14.5269 148.575 14.3483 148.05 14.3483C147.709 14.3483 147.398 14.4304 147.118 14.5948C146.845 14.7592 146.63 14.9878 146.473 15.2808C146.316 15.5667 146.238 15.8882 146.238 16.2455C146.238 16.7886 146.408 17.2424 146.75 17.6068Z" fill="#71717A"/>
<path d="M143.496 19.1397L141.879 16.6743H141.224V19.1397H140.128V16.6743H139.463L137.855 19.1397H136.473L138.521 16.0955L136.678 13.3514H137.978L139.473 15.6131H140.128V13.3514H141.224V15.6131H141.879L143.363 13.3514H144.674L142.831 16.0955L144.879 19.1397H143.496Z" fill="#71717A"/>
<path d="M133.382 13.212C133.928 13.212 134.42 13.3442 134.857 13.6086C135.293 13.8659 135.635 14.2268 135.88 14.6913C136.126 15.1558 136.249 15.6738 136.249 16.2455C136.249 17.1173 135.976 17.8427 135.43 18.4215C134.891 18.9932 134.208 19.279 133.382 19.279C132.672 19.279 132.062 19.0468 131.55 18.5823V21.2191H130.413V13.3514H131.181L131.396 14.0588C131.928 13.4943 132.59 13.212 133.382 13.212ZM132 17.6068C132.341 17.9641 132.771 18.1428 133.29 18.1428C133.816 18.1428 134.249 17.9641 134.59 17.6068C134.932 17.2424 135.102 16.7886 135.102 16.2455C135.102 15.7024 134.932 15.2522 134.59 14.8949C134.249 14.5305 133.819 14.3483 133.3 14.3483C132.959 14.3483 132.648 14.4304 132.369 14.5948C132.089 14.7592 131.87 14.9878 131.713 15.2808C131.563 15.5667 131.488 15.8882 131.488 16.2455C131.488 16.7886 131.659 17.2424 132 17.6068Z" fill="#71717A"/>
<path d="M128.159 13.3514H128.793V19.1397H127.708V15.463L124.76 19.1397H124.104V13.3514H125.2V16.9959L128.159 13.3514Z" fill="#71717A"/>
<path d="M120.621 14.4233C121.296 14.4233 121.849 14.6448 122.279 15.0879C122.716 15.5309 122.935 16.0919 122.935 16.7708C122.935 17.4568 122.713 18.0249 122.269 18.4751C121.832 18.9181 121.279 19.1397 120.611 19.1397H117.918V11.6364H122.392V12.7833H119.085V14.4233H120.621ZM120.518 17.9713C120.873 17.9713 121.163 17.8605 121.389 17.639C121.614 17.4103 121.726 17.1209 121.726 16.7708C121.726 16.5421 121.675 16.3384 121.573 16.1598C121.471 15.9811 121.327 15.8418 121.143 15.7417C120.965 15.6417 120.757 15.5917 120.518 15.5917H119.085V17.9713H120.518Z" fill="#71717A"/>
</svg>
