<svg width="25" height="12" viewBox="0 0 25 12" fill="none" xmlns="http://www.w3.org/2000/svg">
<path d="M0.96 0.599999H1.98V8.04H5.28V9H0.96V0.599999ZM5.82234 6.24C5.82234 5.68 5.94634 5.184 6.19434 4.752C6.45034 4.32 6.79434 3.98 7.22634 3.732C7.65834 3.484 8.14234 3.36 8.67834 3.36C9.22234 3.36 9.70634 3.484 10.1303 3.732C10.5623 3.98 10.9023 4.32 11.1503 4.752C11.4063 5.184 11.5343 5.68 11.5343 6.24C11.5343 6.792 11.4063 7.288 11.1503 7.728C10.9023 8.16 10.5623 8.5 10.1303 8.748C9.70634 8.996 9.22234 9.12 8.67834 9.12C8.14234 9.12 7.65834 8.996 7.22634 8.748C6.79434 8.5 6.45034 8.16 6.19434 7.728C5.94634 7.288 5.82234 6.792 5.82234 6.24ZM6.79434 6.24C6.79434 6.624 6.87434 6.964 7.03434 7.26C7.20234 7.556 7.42634 7.792 7.70634 7.968C7.99434 8.136 8.31834 8.22 8.67834 8.22C9.03834 8.22 9.35834 8.136 9.63834 7.968C9.92634 7.792 10.1503 7.556 10.3103 7.26C10.4783 6.964 10.5623 6.624 10.5623 6.24C10.5623 5.856 10.4783 5.516 10.3103 5.22C10.1503 4.916 9.92634 4.68 9.63834 4.512C9.35834 4.344 9.03834 4.26 8.67834 4.26C8.31834 4.26 7.99434 4.344 7.70634 4.512C7.42634 4.68 7.20234 4.916 7.03434 5.22C6.87434 5.516 6.79434 5.856 6.79434 6.24ZM12.4811 9.36H13.4531C13.4531 9.624 13.5251 9.868 13.6691 10.092C13.8131 10.324 14.0171 10.508 14.2811 10.644C14.5451 10.788 14.8571 10.86 15.2171 10.86C15.4971 10.86 15.7731 10.792 16.0451 10.656C16.3171 10.52 16.5411 10.304 16.7171 10.008C16.9011 9.72 16.9931 9.344 16.9931 8.88V3.48H17.9531V8.88C17.9531 9.512 17.8211 10.04 17.5571 10.464C17.2931 10.896 16.9531 11.22 16.5371 11.436C16.1211 11.652 15.6811 11.76 15.2171 11.76C14.6811 11.76 14.2051 11.66 13.7891 11.46C13.3811 11.26 13.0611 10.976 12.8291 10.608C12.5971 10.248 12.4811 9.832 12.4811 9.36ZM12.3731 6.24C12.3731 5.64 12.4971 5.128 12.7451 4.704C12.9931 4.272 13.3251 3.94 13.7411 3.708C14.1571 3.476 14.6131 3.36 15.1091 3.36C15.5731 3.36 15.9771 3.476 16.3211 3.708C16.6651 3.94 16.9331 4.272 17.1251 4.704C17.3251 5.128 17.4251 5.64 17.4251 6.24C17.4251 6.832 17.3251 7.344 17.1251 7.776C16.9331 8.208 16.6651 8.54 16.3211 8.772C15.9771 9.004 15.5731 9.12 15.1091 9.12C14.6131 9.12 14.1571 9.004 13.7411 8.772C13.3251 8.54 12.9931 8.208 12.7451 7.776C12.4971 7.344 12.3731 6.832 12.3731 6.24ZM13.3451 6.24C13.3451 6.664 13.4291 7.024 13.5971 7.32C13.7731 7.616 14.0051 7.84 14.2931 7.992C14.5811 8.144 14.8931 8.22 15.2291 8.22C15.5091 8.22 15.7851 8.144 16.0571 7.992C16.3291 7.84 16.5531 7.616 16.7291 7.32C16.9051 7.024 16.9931 6.664 16.9931 6.24C16.9931 5.92 16.9411 5.64 16.8371 5.4C16.7331 5.152 16.5931 4.944 16.4171 4.776C16.2491 4.608 16.0611 4.48 15.8531 4.392C15.6451 4.304 15.4371 4.26 15.2291 4.26C14.8931 4.26 14.5811 4.336 14.2931 4.488C14.0051 4.64 13.7731 4.864 13.5971 5.16C13.4291 5.456 13.3451 5.816 13.3451 6.24ZM19.2169 6.24C19.2169 5.68 19.3409 5.184 19.5889 4.752C19.8449 4.32 20.1889 3.98 20.6209 3.732C21.0529 3.484 21.5369 3.36 22.0729 3.36C22.6169 3.36 23.1009 3.484 23.5249 3.732C23.9569 3.98 24.2969 4.32 24.5449 4.752C24.8009 5.184 24.9289 5.68 24.9289 6.24C24.9289 6.792 24.8009 7.288 24.5449 7.728C24.2969 8.16 23.9569 8.5 23.5249 8.748C23.1009 8.996 22.6169 9.12 22.0729 9.12C21.5369 9.12 21.0529 8.996 20.6209 8.748C20.1889 8.5 19.8449 8.16 19.5889 7.728C19.3409 7.288 19.2169 6.792 19.2169 6.24ZM20.1889 6.24C20.1889 6.624 20.2689 6.964 20.4289 7.26C20.5969 7.556 20.8209 7.792 21.1009 7.968C21.3889 8.136 21.7129 8.22 22.0729 8.22C22.4329 8.22 22.7529 8.136 23.0329 7.968C23.3209 7.792 23.5449 7.556 23.7049 7.26C23.8729 6.964 23.9569 6.624 23.9569 6.24C23.9569 5.856 23.8729 5.516 23.7049 5.22C23.5449 4.916 23.3209 4.68 23.0329 4.512C22.7529 4.344 22.4329 4.26 22.0729 4.26C21.7129 4.26 21.3889 4.344 21.1009 4.512C20.8209 4.68 20.5969 4.916 20.4289 5.22C20.2689 5.516 20.1889 5.856 20.1889 6.24Z" fill="black"/>
</svg>
