<svg width="24" height="24" viewBox="0 0 24 24" fill="none" xmlns="http://www.w3.org/2000/svg">
<g id="social/bold/apple">
<path id="Vector" d="M17.0394 20.1976C15.9507 21.253 14.7619 21.0864 13.6176 20.5864C12.4067 20.0754 11.2957 20.0532 10.0181 20.5864C8.41829 21.2752 7.57395 21.0752 6.61852 20.1976C1.19698 14.6094 1.99688 6.09936 8.15166 5.78828C9.65147 5.86605 10.6958 6.6104 11.5734 6.67706C12.8844 6.41043 14.1398 5.64386 15.5396 5.74385C17.2172 5.87716 18.4837 6.54374 19.3169 7.74359C15.8507 9.82111 16.6728 14.3872 19.8502 15.6648C19.2169 17.3313 18.3948 18.9866 17.0283 20.2087L17.0394 20.1976ZM11.4624 5.72163C11.2957 3.24416 13.3066 1.19997 15.6174 1C15.9396 3.8663 13.0177 5.99937 11.4624 5.72163Z" fill="white"/>
</g>
</svg>
