<svg xmlns="http://www.w3.org/2000/svg" width="16" height="16" viewBox="0 0 16 16" fill="none">
  <path fill-rule="evenodd" clip-rule="evenodd" d="M6.7878 1.9959C7.32666 1.06256 8.67381 1.06257 9.21267 1.9959L14.2356 10.6959C14.7745 11.6292 14.1009 12.7959 13.0232 12.7959H2.97728C1.89956 12.7959 1.22599 11.6292 1.76485 10.6959L6.7878 1.9959ZM8.0002 3.9999C8.33157 3.9999 8.6002 4.26853 8.6002 4.5999V7.3999C8.6002 7.73127 8.33157 7.9999 8.0002 7.9999C7.66882 7.9999 7.4002 7.73127 7.4002 7.3999L7.4002 4.5999C7.4002 4.26853 7.66882 3.9999 8.0002 3.9999ZM8.0002 11.1999C8.44202 11.1999 8.8002 10.8417 8.8002 10.3999C8.8002 9.95807 8.44202 9.5999 8.0002 9.5999C7.55837 9.5999 7.2002 9.95807 7.2002 10.3999C7.2002 10.8417 7.55837 11.1999 8.0002 11.1999Z" fill="#12A150"/>
</svg>