<svg xmlns="http://www.w3.org/2000/svg" width="24" height="24" viewBox="0 0 24 24" fill="none">
  <path fill-rule="evenodd" clip-rule="evenodd" d="M2.68762 8.15942C3.05186 8.49764 3.62132 8.47655 3.95954 8.11231L6.30003 5.59179L6.30003 15.8999C6.30003 16.397 6.70297 16.7999 7.20003 16.7999C7.69708 16.7999 8.10003 16.397 8.10003 15.8999V5.59178L10.4405 8.11231C10.7787 8.47655 11.3482 8.49764 11.7124 8.15942C12.0767 7.82119 12.0978 7.25174 11.7595 6.8875L7.85954 2.6875C7.68925 2.50411 7.45029 2.3999 7.20003 2.3999C6.94977 2.3999 6.7108 2.50411 6.54051 2.6875L2.64051 6.8875C2.30229 7.25174 2.32338 7.82119 2.68762 8.15942ZM12.2876 15.8404C11.9234 16.1786 11.9023 16.7481 12.2405 17.1123L16.1405 21.3123C16.3108 21.4957 16.5498 21.5999 16.8 21.5999C17.0503 21.5999 17.2892 21.4957 17.4595 21.3123L21.3595 17.1123C21.6978 16.7481 21.6767 16.1786 21.3124 15.8404C20.9482 15.5022 20.3787 15.5233 20.0405 15.8875L17.7 18.408V8.0999C17.7 7.60285 17.2971 7.1999 16.8 7.1999C16.303 7.1999 15.9 7.60285 15.9 8.0999V18.408L13.5595 15.8875C13.2213 15.5233 12.6519 15.5022 12.2876 15.8404Z" fill="#27272A"/>
</svg>