<svg xmlns="http://www.w3.org/2000/svg" width="22" height="22" viewBox="0 0 22 22" fill="none">
  <path fill-rule="evenodd" clip-rule="evenodd" d="M11.6382 10.2633C11.6382 10.2457 11.9547 9.91256 12.3406 9.52237C12.7308 9.1278 13.0604 8.80776 13.0734 8.80776C13.1428 8.80776 20.6482 15.59 20.7913 15.7785C21.0124 16.0766 21.1035 16.4098 21.0818 16.8263C21.0341 17.6768 20.4141 18.3082 19.5772 18.3564C19.122 18.3827 18.8271 18.2906 18.4933 18.0232C18.2548 17.8347 11.6382 10.3466 11.6382 10.2633ZM4.34864 7.38324C4.13618 7.49723 3.96275 7.69013 3.88037 7.90934C3.80232 8.11978 3.81966 8.51435 3.91939 8.70725C3.96708 8.79932 4.97301 9.85151 6.23043 11.1185C8.09053 12.9993 8.4851 13.3763 8.64553 13.4333C9.49537 13.7315 10.2802 12.8239 9.86392 12.0173C9.74252 11.7718 5.41528 7.4227 5.21583 7.3394C4.96868 7.23857 4.59145 7.2561 4.34864 7.38324ZM5.91515 7.33892L8.04842 5.18194L10.186 3.02056L12.1805 5.03726L14.1751 7.05396L12.0418 9.21095L9.90419 11.3723L7.90967 9.35562L5.91515 7.33892ZM10.1738 1.51681C10.2648 1.30199 10.4426 1.10909 10.6507 1.00825C10.8848 0.889879 11.2837 0.885494 11.5266 0.999481C11.6436 1.05647 12.4241 1.81931 13.9373 3.35376C16.0316 5.48444 16.179 5.64227 16.2267 5.83517C16.2917 6.10699 16.2874 6.2122 16.205 6.45333C16.0142 7.02327 15.3378 7.2907 14.8088 7.01011C14.566 6.88736 10.2648 2.512 10.1824 2.31034C10.1 2.10867 10.0957 1.70533 10.1738 1.51681Z" fill="#6E7781"/>
  <path fill-rule="evenodd" clip-rule="evenodd" d="M1.15956 18.7554C1.2853 18.5712 1.58448 18.3433 1.81428 18.2556C1.95303 18.2074 2.72916 18.1986 6.53175 18.203L11.0845 18.2117L11.3013 18.3301C11.5831 18.4792 11.8519 18.7729 11.956 19.0491C12.0254 19.2332 12.0384 19.3823 12.0384 20.0443V20.8291L11.8953 20.9562L11.7565 21.0833H6.46238H1.16823L1.04249 20.9562L0.916748 20.8291V20.0618C0.916748 19.2376 0.951435 19.0623 1.15956 18.7554ZM2.50811 16.5367C2.68155 16.1992 3.04576 15.9098 3.40564 15.8177C3.47935 15.8002 4.89286 15.7914 6.54918 15.7914L6.56037 15.7915C9.52805 15.8002 9.56722 15.8003 9.76209 15.8923C10.0396 16.0238 10.3084 16.2781 10.4428 16.5411C10.5382 16.734 10.5599 16.8305 10.5729 17.2557L10.5902 17.7511H6.48414H2.37803L2.39538 17.2338C2.40838 16.8129 2.43006 16.6902 2.50811 16.5367Z" fill="#6E7781"/>
</svg>