<svg xmlns="http://www.w3.org/2000/svg" width="22" height="22" viewBox="0 0 22 22" fill="none">
  <path d="M1.48332 0.0596228C1.12243 0.149847 0.851757 0.304517 0.576789 0.579485C0.297524 0.858749 0.125669 1.16379 0.0483343 1.53758C-0.0161114 1.85551 -0.0161114 8.49771 0.0483343 8.81564C0.203004 9.55032 0.800201 10.1475 1.53918 10.3065C1.85711 10.3709 8.49502 10.3752 8.81724 10.3065C9.55622 10.1518 10.1534 9.55462 10.3081 8.81564C10.3725 8.49771 10.3725 1.85551 10.3081 1.53758C10.1534 0.7986 9.55622 0.201404 8.81724 0.0467339C8.47783 -0.0263042 1.77548 -0.0134153 1.48332 0.0596228ZM5.50044 2.70619C5.79689 2.85657 5.84415 3.01123 5.84415 3.84473V4.55364H6.55305C7.38655 4.55364 7.54122 4.6009 7.69159 4.89735C7.8033 5.11646 7.799 5.29691 7.683 5.50743C7.51544 5.79958 7.37796 5.84255 6.55305 5.84255H5.84415V6.55575C5.84415 7.21739 5.83556 7.28184 5.74963 7.4408C5.56918 7.75873 5.20829 7.85755 4.89035 7.6814C4.5982 7.51384 4.55524 7.37636 4.55524 6.55145V5.84255H3.84204C3.18039 5.84255 3.11595 5.83396 2.95698 5.74803C2.52305 5.50313 2.52305 4.89305 2.95698 4.64816C3.11595 4.56223 3.18039 4.55364 3.84204 4.55364H4.55524V3.83184C4.55953 3.01123 4.5939 2.89523 4.88176 2.72338C5.08799 2.59878 5.27703 2.59449 5.50044 2.70619Z" fill="#57606A"/>
  <path d="M13.1259 0.0596228C12.765 0.149847 12.4943 0.304517 12.2194 0.579485C11.9401 0.858749 11.7682 1.16379 11.6909 1.53758C11.6265 1.85551 11.6265 8.49771 11.6909 8.81564C11.8456 9.55032 12.4428 10.1475 13.1818 10.3065C13.4997 10.3709 20.1376 10.3752 20.4598 10.3065C21.1988 10.1518 21.796 9.55462 21.9507 8.81564C22.0151 8.49771 22.0151 1.85551 21.9507 1.53758C21.796 0.7986 21.1988 0.201404 20.4598 0.0467339C20.1204 -0.0263042 13.4181 -0.0134153 13.1259 0.0596228ZM19.0764 4.63956C19.2697 4.73838 19.4201 4.98327 19.4201 5.20239C19.4201 5.40002 19.2525 5.6664 19.0678 5.76092C18.9174 5.83825 18.7842 5.84255 16.8165 5.84255C14.7327 5.84255 14.7285 5.84255 14.5566 5.74803C14.1227 5.50313 14.1184 4.91453 14.548 4.65675L14.7156 4.55364H16.8122C18.8272 4.55364 18.9131 4.55793 19.0764 4.63956Z" fill="#57606A"/>
  <path d="M1.48332 11.7032C1.12243 11.7934 0.851757 11.9481 0.576789 12.223C0.297524 12.5023 0.125669 12.8073 0.0483343 13.1811C-0.0161114 13.4991 -0.0161114 20.1413 0.0483343 20.4592C0.203004 21.1939 0.800201 21.7911 1.53918 21.95C1.85711 22.0145 8.49502 22.0188 8.81724 21.95C9.55622 21.7954 10.1534 21.1982 10.3081 20.4592C10.3725 20.1413 10.3725 13.4991 10.3081 13.1811C10.1534 12.4422 9.55622 11.845 8.81724 11.6903C8.47783 11.6173 1.77548 11.6301 1.48332 11.7032ZM4.07404 14.8438C4.16427 14.8825 4.43923 15.1145 4.7142 15.3938L5.19969 15.8707L5.70237 15.3723C6.27379 14.8095 6.43705 14.7235 6.74209 14.8181C6.94832 14.8782 7.16314 15.1102 7.19751 15.3121C7.25336 15.5914 7.15455 15.7547 6.62609 16.2917L6.12771 16.7987L6.62609 17.3014C7.15455 17.8427 7.25336 18.006 7.19751 18.2852C7.16314 18.4872 6.94832 18.7192 6.74209 18.7793C6.43705 18.8738 6.27379 18.7879 5.70667 18.2251L5.19969 17.7267L4.69702 18.2251C4.15567 18.7535 3.99241 18.8524 3.71315 18.7965C3.51122 18.7621 3.27921 18.5473 3.21906 18.3411C3.12454 18.036 3.21047 17.8728 3.77329 17.3014L4.27168 16.7987L3.77329 16.2917C3.24484 15.759 3.14602 15.5871 3.19758 15.3164C3.24914 15.0458 3.54988 14.7837 3.81626 14.7794C3.86782 14.7794 3.98382 14.8095 4.07404 14.8438Z" fill="#57606A"/>
  <path d="M13.1259 11.7032C12.765 11.7934 12.4943 11.9481 12.2194 12.223C11.9401 12.5023 11.7682 12.8073 11.6909 13.1811C11.6265 13.4991 11.6265 20.1413 11.6909 20.4592C11.8456 21.1939 12.4428 21.7911 13.1818 21.95C13.4997 22.0145 20.1376 22.0188 20.4598 21.95C21.1988 21.7954 21.796 21.1982 21.9507 20.4592C22.0151 20.1413 22.0151 13.4991 21.9507 13.1811C21.796 12.4422 21.1988 11.845 20.4598 11.6903C20.1204 11.6173 13.4181 11.6301 13.1259 11.7032ZM19.0764 14.9512C19.2697 15.0501 19.4201 15.295 19.4201 15.5141C19.4201 15.7117 19.2525 15.9781 19.0678 16.0726C18.9174 16.1499 18.7842 16.1542 16.8165 16.1542C14.7327 16.1542 14.7285 16.1542 14.5566 16.0597C14.1227 15.8148 14.1184 15.2262 14.548 14.9684L14.7156 14.8653H16.8122C18.8272 14.8653 18.9131 14.8696 19.0764 14.9512ZM19.0764 17.5291C19.2697 17.6279 19.4201 17.8728 19.4201 18.0919C19.4201 18.2895 19.2525 18.5559 19.0678 18.6504C18.9174 18.7278 18.7842 18.7321 16.8165 18.7321C14.7327 18.7321 14.7285 18.7321 14.5566 18.6375C14.1227 18.3926 14.1184 17.804 14.548 17.5463L14.7156 17.4431H16.8122C18.8272 17.4431 18.9131 17.4474 19.0764 17.5291Z" fill="#57606A"/>
</svg>