<svg xmlns="http://www.w3.org/2000/svg" width="24" height="24" viewBox="0 0 24 24" fill="none">
  <path fill-rule="evenodd" clip-rule="evenodd" d="M20.25 12C20.25 16.3035 16.9549 19.8374 12.75 20.2164C12.503 20.2386 12.2528 20.25 12 20.25C11.7472 20.25 11.497 20.2386 11.25 20.2164C7.04513 19.8374 3.75 16.3035 3.75 12C3.75 11.731 3.76287 11.4651 3.78803 11.2027C3.88386 10.2034 4.15797 9.2561 4.57817 8.39308C5.91655 5.64425 8.73706 3.74999 12 3.74999C13.8666 3.74999 15.5885 4.36993 16.9709 5.41514C18.9628 6.92122 20.25 9.31029 20.25 12ZM21.75 12C21.75 6.61522 17.3848 2.25 12 2.25C6.61522 2.25 2.25 6.61522 2.25 12C2.25 17.3848 6.61522 21.75 12 21.75C17.3848 21.75 21.75 17.3848 21.75 12Z" fill="#27272A"/>
  <path fill-rule="evenodd" clip-rule="evenodd" d="M12 3.75C7.44365 3.75 3.75 7.44365 3.75 12C3.75 16.5563 7.44365 20.25 12 20.25V3.75Z" fill="#27272A"/>
</svg>