<svg xmlns="http://www.w3.org/2000/svg" width="16" height="16" viewBox="0 0 16 16" fill="none">
  <path fill-rule="evenodd" clip-rule="evenodd" d="M4.6001 1.60001C4.93147 1.60001 5.2001 1.86864 5.2001 2.20001V3.20001H10.8001V2.20001C10.8001 1.86864 11.0687 1.60001 11.4001 1.60001C11.7315 1.60001 12.0001 1.86864 12.0001 2.20001V3.20001H12.2001C13.4151 3.20001 14.4001 4.18498 14.4001 5.40001V12.2C14.4001 13.415 13.4151 14.4 12.2001 14.4H3.8001C2.58507 14.4 1.6001 13.415 1.6001 12.2V5.40001C1.6001 4.18498 2.58507 3.20001 3.8001 3.20001H4.0001V2.20001C4.0001 1.86864 4.26873 1.60001 4.6001 1.60001ZM3.8001 6.00001C3.24781 6.00001 2.8001 6.44772 2.8001 7.00001V12.2C2.8001 12.7523 3.24781 13.2 3.8001 13.2H12.2001C12.7524 13.2 13.2001 12.7523 13.2001 12.2V7.00001C13.2001 6.44772 12.7524 6.00001 12.2001 6.00001H3.8001Z" fill="#AFB8C1"/>
</svg>