<svg xmlns="http://www.w3.org/2000/svg" width="25" height="24" viewBox="0 0 25 24" fill="none">
  <path d="M9.125 12C9.125 12.2071 8.95711 12.375 8.75 12.375C8.54289 12.375 8.375 12.2071 8.375 12C8.375 11.7929 8.54289 11.625 8.75 11.625C8.95711 11.625 9.125 11.7929 9.125 12ZM9.125 12H8.75M12.875 12C12.875 12.2071 12.7071 12.375 12.5 12.375C12.2929 12.375 12.125 12.2071 12.125 12C12.125 11.7929 12.2929 11.625 12.5 11.625C12.7071 11.625 12.875 11.7929 12.875 12ZM12.875 12H12.5M16.625 12C16.625 12.2071 16.4571 12.375 16.25 12.375C16.0429 12.375 15.875 12.2071 15.875 12C15.875 11.7929 16.0429 11.625 16.25 11.625C16.4571 11.625 16.625 11.7929 16.625 12ZM16.625 12H16.25M21.5 12C21.5 16.5563 17.4706 20.25 12.5 20.25C11.6125 20.25 10.7551 20.1323 9.94517 19.9129C8.97016 20.5979 7.78201 21 6.5 21C6.30078 21 6.10376 20.9903 5.90967 20.9713C5.75 20.9558 5.5918 20.9339 5.43579 20.906C5.91932 20.3353 6.26277 19.6427 6.41389 18.8808C6.50454 18.4238 6.2807 17.9799 5.94684 17.6549C4.4297 16.1782 3.5 14.1886 3.5 12C3.5 7.44365 7.52944 3.75 12.5 3.75C17.4706 3.75 21.5 7.44365 21.5 12Z" stroke="#27272A" stroke-width="1.5" stroke-linecap="round" stroke-linejoin="round"/>
</svg>