<svg xmlns="http://www.w3.org/2000/svg" width="24" height="24" viewBox="0 0 24 24" fill="none">
  <path d="M17.5501 12C17.5501 11.0887 18.2888 10.35 19.2001 10.35C20.1114 10.35 20.8501 11.0887 20.8501 12C20.8501 12.9112 20.1114 13.65 19.2001 13.65C18.2888 13.65 17.5501 12.9112 17.5501 12ZM10.3501 12C10.3501 11.0887 11.0888 10.35 12.0001 10.35C12.9114 10.35 13.6501 11.0887 13.6501 12C13.6501 12.9112 12.9114 13.65 12.0001 13.65C11.0888 13.65 10.3501 12.9112 10.3501 12ZM3.1501 12C3.1501 11.0887 3.88883 10.35 4.8001 10.35C5.71137 10.35 6.4501 11.0887 6.4501 12C6.4501 12.9112 5.71137 13.65 4.8001 13.65C3.88883 13.65 3.1501 12.9112 3.1501 12Z" stroke="#27272A" stroke-width="1.5"/>
</svg>