<svg xmlns="http://www.w3.org/2000/svg" width="24" height="24" viewBox="0 0 24 24" fill="none">
  <path d="M17.5501 12.0001C17.5501 11.0888 18.2888 10.3501 19.2001 10.3501C20.1114 10.3501 20.8501 11.0888 20.8501 12.0001C20.8501 12.9114 20.1114 13.6501 19.2001 13.6501C18.2888 13.6501 17.5501 12.9114 17.5501 12.0001ZM10.3501 12.0001C10.3501 11.0888 11.0888 10.3501 12.0001 10.3501C12.9114 10.3501 13.6501 11.0888 13.6501 12.0001C13.6501 12.9114 12.9114 13.6501 12.0001 13.6501C11.0888 13.6501 10.3501 12.9114 10.3501 12.0001ZM3.1501 12.0001C3.1501 11.0888 3.88883 10.3501 4.8001 10.3501C5.71137 10.3501 6.4501 11.0888 6.4501 12.0001C6.4501 12.9114 5.71137 13.6501 4.8001 13.6501C3.88883 13.6501 3.1501 12.9114 3.1501 12.0001Z" stroke="#27272A" stroke-width="1.5"/>
</svg>