<svg width="190" height="152" viewBox="0 0 190 152" fill="none" xmlns="http://www.w3.org/2000/svg">
<path fill-rule="evenodd" clip-rule="evenodd" d="M157.321 49.3999C160.259 49.3999 162.641 51.7817 162.641 54.7199C162.641 57.6581 160.259 60.0399 157.321 60.0399H126.921C129.859 60.0399 132.241 62.4217 132.241 65.3599C132.241 68.2981 129.859 70.6799 126.921 70.6799H143.641C146.579 70.6799 148.961 73.0617 148.961 75.9999C148.961 78.9381 146.579 81.3199 143.641 81.3199H135.909C132.204 81.3199 129.201 83.7017 129.201 86.6399C129.201 88.5987 130.721 90.372 133.761 91.9599C136.699 91.9599 139.081 94.3417 139.081 97.2799C139.081 100.218 136.699 102.6 133.761 102.6H70.6807C67.7425 102.6 65.3607 100.218 65.3607 97.2799C65.3607 94.3417 67.7425 91.9599 70.6807 91.9599H41.0407C38.1025 91.9599 35.7207 89.5781 35.7207 86.6399C35.7207 83.7017 38.1025 81.3199 41.0407 81.3199H71.4407C74.3789 81.3199 76.7607 78.9381 76.7607 75.9999C76.7607 73.0617 74.3789 70.6799 71.4407 70.6799H52.4407C49.5025 70.6799 47.1207 68.2981 47.1207 65.3599C47.1207 62.4217 49.5025 60.0399 52.4407 60.0399H82.8407C79.9025 60.0399 77.5207 57.6581 77.5207 54.7199C77.5207 51.7817 79.9025 49.3999 82.8407 49.3999H157.321ZM157.321 70.6799C160.259 70.6799 162.641 73.0617 162.641 75.9999C162.641 78.9381 160.259 81.3199 157.321 81.3199C154.383 81.3199 152.001 78.9381 152.001 75.9999C152.001 73.0617 154.383 70.6799 157.321 70.6799Z" fill="#F6F8FA"/>
<path d="M91.5791 101.08C105.64 101.08 117.039 89.6813 117.039 75.6202C117.039 61.559 105.64 50.1602 91.5791 50.1602C77.518 50.1602 66.1191 61.559 66.1191 75.6202C66.1191 89.6813 77.518 101.08 91.5791 101.08Z" fill="#F6F8FA" stroke="#57606A" stroke-width="2"/>
<path fill-rule="evenodd" clip-rule="evenodd" d="M87.4998 95.3753C88.8365 95.6221 90.1963 95.7503 91.5795 95.76C102.702 95.76 111.719 86.743 111.719 75.62C111.719 64.497 102.702 55.48 91.5795 55.48C88.7221 55.48 86.0038 56.075 83.5416 57.1479C79.2628 59.0124 75.7575 62.3199 73.6404 66.4558C72.2333 69.2048 71.4395 72.3197 71.4395 75.62C71.4395 78.6144 72.0929 81.4562 73.2651 84.0105C74.1019 85.8341 75.2031 87.5111 76.5196 88.9926" fill="white"/>
<path d="M87.4998 95.3753C88.8365 95.6221 90.1963 95.7503 91.5795 95.76C102.702 95.76 111.719 86.743 111.719 75.62C111.719 64.497 102.702 55.48 91.5795 55.48C88.7221 55.48 86.0038 56.075 83.5416 57.1479C79.2628 59.0124 75.7575 62.3199 73.6404 66.4558C72.2333 69.2048 71.4395 72.3197 71.4395 75.62C71.4395 78.6144 72.0929 81.4562 73.2651 84.0105C74.1019 85.8341 75.2031 87.5111 76.5196 88.9926" stroke="#57606A" stroke-width="2" stroke-linecap="round"/>
<path d="M78.8848 91.2568C80.5173 92.5838 82.3617 93.6602 84.3594 94.4275" stroke="#57606A" stroke-width="2" stroke-linecap="round"/>
<path d="M112.479 95.7603L117.039 100.32" stroke="#57606A" stroke-width="2"/>
<path fill-rule="evenodd" clip-rule="evenodd" d="M116.302 99.5832C114.863 101.022 114.863 103.354 116.302 104.792L124.726 113.217C126.165 114.656 128.497 114.656 129.935 113.217C131.374 111.779 131.374 109.447 129.935 108.008L121.511 99.5832C120.072 98.1448 117.74 98.1448 116.302 99.5832Z" fill="#EAEEF2" stroke="#57606A" stroke-width="2"/>
<path d="M120.08 101.08L128.44 109.44" stroke="white" stroke-width="2.5" stroke-linecap="round"/>
<path fill-rule="evenodd" clip-rule="evenodd" d="M86.6395 66.8804C86.6395 75.6948 93.7851 82.8404 102.6 82.8404C104.331 82.8404 105.998 82.5646 107.559 82.0546C105.011 88.3785 98.8166 92.8425 91.5795 92.8425C82.068 92.8425 74.3574 85.1319 74.3574 75.6204C74.3574 67.0016 80.6885 59.8616 88.9537 58.5972C87.4854 61.0126 86.6395 63.8477 86.6395 66.8804Z" fill="#EAEEF2"/>
<path d="M91.9595 61.5601C90.9918 61.5601 90.0462 61.6553 89.1318 61.8368M86.3695 62.6819C81.1705 64.8667 77.5195 70.007 77.5195 76.0001" stroke="#8C959F" stroke-width="2" stroke-linecap="round"/>
<path d="M132.374 75.8307H126.161M137.181 69.9199H124.127H137.181ZM142.501 69.9199H140.812H142.501Z" stroke="#8C959F" stroke-width="2" stroke-linecap="round" stroke-linejoin="round"/>
<path d="M63.9741 92.5507H57.7605M60.4205 85.8799H47.3669H60.4205ZM42.9405 85.8799H39.7324H42.9405Z" stroke="#8C959F" stroke-width="2" stroke-linecap="round" stroke-linejoin="round"/>
</svg>
