<svg xmlns="http://www.w3.org/2000/svg" width="16" height="16" viewBox="0 0 16 16" fill="none">
  <path d="M8 9.99999C9.10457 9.99999 10 9.10456 10 7.99999C10 6.89542 9.10457 5.99999 8 5.99999C6.89543 5.99999 6 6.89542 6 7.99999C6 9.10456 6.89543 9.99999 8 9.99999Z" fill="#AFB8C1"/>
  <path fill-rule="evenodd" clip-rule="evenodd" d="M0.531404 8.4723C0.413913 8.16698 0.414015 7.8285 0.531688 7.52326C1.68702 4.5263 4.59464 2.39999 7.99887 2.39999C11.4048 2.39999 14.3136 4.5284 15.4678 7.52769C15.5853 7.83301 15.5852 8.17149 15.4675 8.47674C14.3121 11.4737 11.4045 13.6 8.0003 13.6C4.59438 13.6 1.68558 11.4716 0.531404 8.4723ZM11.2003 7.99999C11.2003 9.76731 9.76761 11.2 8.0003 11.2C6.23299 11.2 4.8003 9.76731 4.8003 7.99999C4.8003 6.23268 6.23299 4.79999 8.0003 4.79999C9.76761 4.79999 11.2003 6.23268 11.2003 7.99999Z" fill="#AFB8C1"/>
</svg>