<svg xmlns="http://www.w3.org/2000/svg" width="24" height="24" viewBox="0 0 24 24" fill="none">
  <path d="M2.83333 8.1732H6.27083C6.45442 8.89022 6.87142 9.52573 7.45609 9.97957C8.04077 10.4334 8.75986 10.6797 9.5 10.6797C10.2401 10.6797 10.9592 10.4334 11.5439 9.97957C12.1286 9.52573 12.5456 8.89022 12.7292 8.1732H21.1667C21.3877 8.1732 21.5996 8.08541 21.7559 7.92913C21.9122 7.77285 22 7.56088 22 7.33987C22 7.11886 21.9122 6.90689 21.7559 6.75061C21.5996 6.59433 21.3877 6.50654 21.1667 6.50654H12.7292C12.5456 5.78952 12.1286 5.154 11.5439 4.70017C10.9592 4.24634 10.2401 4 9.5 4C8.75986 4 8.04077 4.24634 7.45609 4.70017C6.87142 5.154 6.45442 5.78952 6.27083 6.50654H2.83333C2.61232 6.50654 2.40036 6.59433 2.24408 6.75061C2.0878 6.90689 2 7.11886 2 7.33987C2 7.56088 2.0878 7.77285 2.24408 7.92913C2.40036 8.08541 2.61232 8.1732 2.83333 8.1732ZM9.5 5.6732C9.82964 5.6732 10.1519 5.77095 10.426 5.95409C10.7 6.13722 10.9137 6.39752 11.0398 6.70206C11.1659 7.00661 11.199 7.34172 11.1346 7.66502C11.0703 7.98832 10.9116 8.28529 10.6785 8.51838C10.4454 8.75147 10.1485 8.9102 9.82515 8.97451C9.50185 9.03882 9.16674 9.00582 8.86219 8.87967C8.55765 8.75352 8.29735 8.5399 8.11422 8.26582C7.93108 7.99174 7.83333 7.66951 7.83333 7.33987C7.83333 6.89784 8.00893 6.47392 8.32149 6.16136C8.63405 5.8488 9.05797 5.6732 9.5 5.6732ZM21.1667 16.5065H19.3958C19.2122 15.7895 18.7952 15.154 18.2106 14.7002C17.6259 14.2463 16.9068 14 16.1667 14C15.4265 14 14.7074 14.2463 14.1228 14.7002C13.5381 15.154 13.1211 15.7895 12.9375 16.5065H2.83333C2.61232 16.5065 2.40036 16.5943 2.24408 16.7506C2.0878 16.9069 2 17.1189 2 17.3399C2 17.5609 2.0878 17.7728 2.24408 17.9291C2.40036 18.0854 2.61232 18.1732 2.83333 18.1732H12.9375C13.1211 18.8902 13.5381 19.5257 14.1228 19.9796C14.7074 20.4334 15.4265 20.6797 16.1667 20.6797C16.9068 20.6797 17.6259 20.4334 18.2106 19.9796C18.7952 19.5257 19.2122 18.8902 19.3958 18.1732H21.1667C21.3877 18.1732 21.5996 18.0854 21.7559 17.9291C21.9122 17.7728 22 17.5609 22 17.3399C22 17.1189 21.9122 16.9069 21.7559 16.7506C21.5996 16.5943 21.3877 16.5065 21.1667 16.5065ZM16.1667 19.0065C15.837 19.0065 15.5148 18.9088 15.2407 18.7257C14.9666 18.5425 14.753 18.2822 14.6269 17.9777C14.5007 17.6731 14.4677 17.338 14.532 17.0147C14.5963 16.6914 14.7551 16.3944 14.9882 16.1614C15.2212 15.9283 15.5182 15.7695 15.8415 15.7052C16.1648 15.6409 16.4999 15.6739 16.8045 15.8001C17.109 15.9262 17.3693 16.1398 17.5524 16.4139C17.7356 16.688 17.8333 17.0102 17.8333 17.3399C17.8333 17.7819 17.6577 18.2058 17.3452 18.5184C17.0326 18.8309 16.6087 19.0065 16.1667 19.0065Z" fill="white"/>
</svg>