<svg width="24" height="24" viewBox="0 0 24 24" fill="none" xmlns="http://www.w3.org/2000/svg">
<g id="social/bold/google">
<path id="Union" fill-rule="evenodd" clip-rule="evenodd" d="M15.1435 6.95434L18.3831 4.30217C16.6512 2.86429 14.4265 2 12.0001 2C8.13543 2 4.78336 4.19206 3.11897 7.40054L3.11813 7.40039C2.40328 8.77729 2 10.341 2 11.9992C2 13.7141 2.43133 15.3278 3.19177 16.7382L3.19356 16.7382L3.19223 16.7393C4.88126 19.8716 8.19226 22.0002 12.0005 22.0002C14.3694 22.0002 16.5451 21.1761 18.2586 19.7995L18.2604 19.7996C20.0225 18.3831 21.2945 16.3815 21.7813 14.0892C21.9247 13.4155 21.9999 12.7172 21.9999 12.0013C21.9999 11.3628 21.9401 10.7381 21.8253 10.1332H17.645H12.2198V14.0892H17.567C17.0858 15.3734 16.1725 16.4462 15.0038 17.132L15.0033 17.1315C14.1225 17.6486 13.0961 17.9448 12.0005 17.9448C9.4516 17.9448 7.27741 16.3404 6.43291 14.0865L6.43195 14.0873L6.43244 14.0855C6.1885 13.4367 6.05552 12.7333 6.05545 11.9992C6.05545 11.3231 6.1686 10.6733 6.37618 10.0679L6.37642 10.0681C7.17861 7.73344 9.39346 6.05544 12.0001 6.05544C13.1545 6.05544 14.232 6.38458 15.1435 6.95434Z" fill="white"/>
</g>
</svg>
