<svg width="24" height="24" viewBox="0 0 24 24" fill="none" xmlns="http://www.w3.org/2000/svg">
<g clip-path="url(#clip0_3706_2087)">
<path fill-rule="evenodd" clip-rule="evenodd" d="M11.0727 23.5877C11.7413 23.872 12.4625 24.012 13.1894 23.9992C13.9163 24.012 14.6375 23.872 15.306 23.5877C15.3147 23.5825 15.3574 23.5616 15.4297 23.5263L15.43 23.5261L15.43 23.5261C15.8327 23.3295 17.15 22.6861 18.6062 21.8047C20.3246 20.7646 21.7243 19.6902 21.7243 19.6902C22.858 18.7172 23.602 17.3657 23.8182 15.8841C23.8296 15.8155 24.0002 14.0668 24.0002 11.998C24.0002 10.2479 23.8699 8.72676 23.8298 8.25818L23.8298 8.25799C23.8225 8.17279 23.8182 8.12244 23.8182 8.11188C23.602 6.6303 22.858 5.27731 21.7243 4.30578C21.697 4.29359 21.5855 4.21152 21.4042 4.07799C20.9053 3.71071 19.8778 2.95408 18.6176 2.19129C16.8992 1.15119 15.3857 0.408255 15.3174 0.408255C13.9618 -0.136085 12.4511 -0.136085 11.0955 0.408255C11.0868 0.413481 11.0441 0.434374 10.9717 0.46972L10.9716 0.469745C10.5691 0.666324 9.25172 1.30976 7.79533 2.19129C6.07697 3.2314 4.67723 4.30578 4.67723 4.30578C4.16798 4.71725 3.73981 5.22159 3.41406 5.79165L4.36997 6.35171C4.62601 5.91453 4.95748 5.52734 5.34866 5.20874C5.36004 5.19731 6.69149 4.18006 8.34157 3.17424C9.99165 2.16843 11.5279 1.44835 11.5279 1.44835C12.5791 1.0426 13.7427 1.0426 14.7939 1.44835C14.7939 1.44835 16.3871 2.13415 18.0486 3.13996C19.7101 4.14578 21.0642 5.18588 21.0642 5.18588C21.949 5.96596 22.5323 7.03463 22.7143 8.20332C22.7257 8.21475 22.8964 9.9635 22.8964 11.9751C22.8964 13.9868 22.7143 15.7469 22.7143 15.7469C22.5337 16.9156 21.949 17.9829 21.0642 18.7644C21.0529 18.7758 19.7101 19.8045 18.0486 20.8103C16.3871 21.8161 14.8508 22.5362 14.8508 22.5362C13.7996 22.9419 12.636 22.9419 11.5848 22.5362L11.5703 22.5293C11.4099 22.4529 9.96515 21.7656 8.38706 20.8103C6.7256 19.8045 5.37141 18.7644 5.37141 18.7644C4.98023 18.4443 4.6488 18.0572 4.39276 17.6214L3.41406 18.2043C3.73412 18.7715 4.15377 19.2744 4.65448 19.6902C4.71138 19.7359 6.06561 20.7646 7.77258 21.8047C9.47956 22.8448 11.0044 23.5877 11.0727 23.5877ZM4.55196 8.57031H0V15.4281H1.13801V9.71329H4.55196V8.57031ZM9.10363 9.71329C9.55456 9.71329 9.99412 9.84758 10.3682 10.099C10.7423 10.3491 11.0339 10.7062 11.2061 11.1249C11.3796 11.542 11.4237 12.0021 11.3355 12.445C11.2487 12.8879 11.0311 13.2965 10.7139 13.6151C10.3953 13.9351 9.98985 14.1523 9.54746 14.2409C9.10649 14.3295 8.64844 14.2837 8.23307 14.1109C7.81771 13.938 7.46211 13.6451 7.21175 13.2694C6.96139 12.8936 6.8277 12.4507 6.8277 11.9992C6.8277 11.3935 7.06809 10.812 7.49483 10.3834C7.92158 9.95331 8.5005 9.71329 9.10363 9.71329ZM9.10363 8.57031C8.42938 8.57031 7.76938 8.77176 7.2075 9.14751C6.64562 9.52469 6.20891 10.0605 5.95002 10.6862C5.69113 11.3134 5.62424 12.0035 5.7551 12.6679C5.88739 13.3337 6.21316 13.9437 6.68969 14.4238C7.16765 14.9038 7.77505 15.2296 8.43793 15.3624C9.10081 15.4939 9.78643 15.4267 10.4109 15.1667C11.0339 14.9081 11.5674 14.468 11.9429 13.9037C12.317 13.3408 12.5176 12.6779 12.5176 11.9992C12.5176 11.0891 12.1577 10.2176 11.5176 9.5747C10.8775 8.93178 10.0098 8.57031 9.10363 8.57031ZM15.514 15.0469C15.9963 15.2969 16.5297 15.4269 17.0702 15.4284C17.8739 15.4298 18.6506 15.1455 19.2666 14.6283L18.5382 13.7482C18.258 13.9853 17.9266 14.1496 17.5695 14.2297C17.2111 14.3111 16.8412 14.3025 16.487 14.2082C16.1328 14.1139 15.8071 13.9353 15.5382 13.6867C15.268 13.4382 15.0603 13.1296 14.9351 12.7838C14.8099 12.4381 14.7687 12.068 14.8156 11.7037C14.864 11.3394 14.9977 10.9922 15.2068 10.6907C15.4159 10.3893 15.6947 10.1421 16.0204 9.97209C16.3448 9.80208 16.7047 9.7135 17.0702 9.7135C17.5667 9.71064 18.0503 9.87208 18.4472 10.1707L19.1414 9.26773C18.7103 8.93913 18.2068 8.71768 17.6748 8.62339C17.1414 8.52766 16.5937 8.56195 16.0759 8.72197C15.5581 8.88198 15.0859 9.16201 14.6975 9.54205C14.3092 9.92066 14.0176 10.3864 13.844 10.9022C13.6705 11.418 13.6222 11.9666 13.7018 12.5052C13.7815 13.0424 13.9877 13.5539 14.3021 13.9954C14.6179 14.4383 15.0332 14.7983 15.514 15.0469Z" fill="#F1516F"/>
</g>
<defs>
<clipPath id="clip0_3706_2087">
<rect width="24" height="24" fill="white"/>
</clipPath>
</defs>
</svg>
