<svg xmlns="http://www.w3.org/2000/svg" width="16" height="16" viewBox="0 0 16 16" fill="none">
  <path fill-rule="evenodd" clip-rule="evenodd" d="M7.75209 15.1465L7.75433 15.1475C7.91202 15.2161 8.00002 15.2001 8.00002 15.2001C8.00002 15.2001 8.08803 15.2161 8.24635 15.1472L8.24796 15.1465L8.25255 15.1444L8.26707 15.1377C8.27909 15.1321 8.29576 15.1243 8.31675 15.1142C8.35872 15.0939 8.41806 15.0645 8.49229 15.0258C8.64065 14.9485 8.849 14.8336 9.09735 14.6797C9.59301 14.3725 10.2539 13.9062 10.9164 13.2676C12.2418 11.9902 13.6 9.99408 13.6 7.2001C13.6 4.1073 11.0928 1.6001 8.00002 1.6001C4.90723 1.6001 2.40002 4.1073 2.40002 7.2001C2.40002 9.99408 3.75829 11.9902 5.08364 13.2676C5.74613 13.9062 6.40704 14.3725 6.9027 14.6797C7.15105 14.8336 7.3594 14.9485 7.50776 15.0258C7.58199 15.0645 7.64133 15.0939 7.6833 15.1142C7.70429 15.1243 7.72096 15.1321 7.73298 15.1377L7.7475 15.1444L7.75209 15.1465ZM8.00002 9.0001C8.99414 9.0001 9.80002 8.19421 9.80002 7.2001C9.80002 6.20599 8.99414 5.4001 8.00002 5.4001C7.00591 5.4001 6.20002 6.20599 6.20002 7.2001C6.20002 8.19421 7.00591 9.0001 8.00002 9.0001Z" fill="#24292F"/>
</svg>