<svg xmlns="http://www.w3.org/2000/svg" width="16" height="16" viewBox="0 0 16 16" fill="none">
  <path fill-rule="evenodd" clip-rule="evenodd" d="M7.19961 2.8001C4.76956 2.8001 2.79961 4.77004 2.79961 7.2001C2.79961 9.63015 4.76956 11.6001 7.19961 11.6001C8.4148 11.6001 9.51398 11.1083 10.3109 10.3114C11.1078 9.51447 11.5996 8.41529 11.5996 7.2001C11.5996 4.77004 9.62966 2.8001 7.19961 2.8001ZM1.59961 7.2001C1.59961 4.1073 4.10681 1.6001 7.19961 1.6001C10.2924 1.6001 12.7996 4.1073 12.7996 7.2001C12.7996 8.53011 12.3354 9.75255 11.561 10.7129L14.2239 13.3758C14.4582 13.6101 14.4582 13.99 14.2239 14.2244C13.9896 14.4587 13.6097 14.4587 13.3753 14.2244L10.7125 11.5615C9.75206 12.3358 8.52963 12.8001 7.19961 12.8001C4.10681 12.8001 1.59961 10.2929 1.59961 7.2001Z" fill="#6E7781"/>
</svg>