<svg width="24" height="24" viewBox="0 0 24 24" fill="none" xmlns="http://www.w3.org/2000/svg">
<path d="M15.0078 12C15.0078 13.6591 13.6591 15.0078 12 15.0078C10.3409 15.0078 8.99224 13.6591 8.99224 12C8.99224 10.3409 10.3409 8.99224 12 8.99224C13.6591 8.99224 15.0078 10.3409 15.0078 12ZM12 2C6.48674 2 2 6.48675 2 12C2 17.5133 6.48674 22 12 22C14.0208 22 15.9684 21.3996 17.6334 20.2604L17.6626 20.2414L16.314 18.6745L16.292 18.6891C15.0108 19.5135 13.5259 19.9499 12 19.9499C7.61575 19.9499 4.05008 16.3842 4.05008 12C4.05008 7.61722 7.61575 4.05009 12 4.05009C16.3842 4.05009 19.9499 7.61722 19.9499 12C19.9499 12.5681 19.887 13.1436 19.7625 13.7089C19.5121 14.7413 18.7887 15.0575 18.2469 15.0151C17.7007 14.9711 17.0623 14.5816 17.0579 13.6313V12.9064V12C17.0579 9.21043 14.7896 6.94216 12 6.94216C9.21043 6.94216 6.94216 9.21043 6.94216 12C6.94216 14.7896 9.21043 17.0579 12 17.0579C13.3545 17.0579 14.6256 16.5278 15.5833 15.5656C16.1411 16.4325 17.049 16.9759 18.0814 17.0579C18.1708 17.0651 18.2615 17.0695 18.3509 17.0695C19.0786 17.0695 19.7991 16.8265 20.3805 16.3842C20.9809 15.9302 21.4275 15.2714 21.6749 14.4806C21.7145 14.3532 21.7876 14.0589 21.7876 14.0589L21.7891 14.0486C21.9356 13.4145 22 12.782 22 12C22 6.48675 17.5133 2 12 2Z" fill="#FCB441"/>
</svg>
