<svg xmlns="http://www.w3.org/2000/svg" width="25" height="24" viewBox="0 0 25 24" fill="none">
  <path d="M22.0306 20.4693L17.3365 15.7762C18.6971 14.1428 19.3755 12.0478 19.2307 9.92691C19.0859 7.80604 18.129 5.82265 16.5591 4.38932C14.9892 2.95599 12.9271 2.18308 10.8019 2.23138C8.67663 2.27968 6.65181 3.14547 5.14864 4.64864C3.64547 6.15181 2.77968 8.17663 2.73138 10.3019C2.68308 12.4271 3.45599 14.4892 4.88932 16.0591C6.32265 17.629 8.30604 18.5859 10.4269 18.7307C12.5478 18.8755 14.6428 18.1971 16.2762 16.8365L20.9693 21.5306C21.039 21.6003 21.1218 21.6556 21.2128 21.6933C21.3038 21.731 21.4014 21.7504 21.5 21.7504C21.5985 21.7504 21.6961 21.731 21.7871 21.6933C21.8782 21.6556 21.9609 21.6003 22.0306 21.5306C22.1003 21.4609 22.1556 21.3782 22.1933 21.2871C22.231 21.1961 22.2504 21.0985 22.2504 21C22.2504 20.9014 22.231 20.8038 22.1933 20.7128C22.1556 20.6218 22.1003 20.539 22.0306 20.4693ZM4.24997 10.5C4.24997 9.16495 4.64585 7.8599 5.38755 6.74987C6.12925 5.63984 7.18345 4.77467 8.41686 4.26378C9.65026 3.75289 11.0075 3.61922 12.3168 3.87967C13.6262 4.14012 14.8289 4.78299 15.7729 5.727C16.7169 6.671 17.3598 7.87374 17.6203 9.18311C17.8807 10.4925 17.747 11.8497 17.2362 13.0831C16.7253 14.3165 15.8601 15.3707 14.7501 16.1124C13.64 16.8541 12.335 17.25 11 17.25C9.21037 17.248 7.49463 16.5362 6.22919 15.2707C4.96375 14.0053 4.25195 12.2896 4.24997 10.5Z" fill="#8C959F"/>
</svg>