<svg xmlns="http://www.w3.org/2000/svg" width="220" height="176" viewBox="0 0 220 176" fill="none">
  <path fill-rule="evenodd" clip-rule="evenodd" d="M182.16 57.2C185.562 57.2 188.32 59.9579 188.32 63.36C188.32 66.7621 185.562 69.52 182.16 69.52H146.96C150.362 69.52 153.12 72.2779 153.12 75.68C153.12 79.0821 150.362 81.84 146.96 81.84H166.32C169.722 81.84 172.48 84.5979 172.48 88C172.48 91.4021 169.722 94.16 166.32 94.16H157.367C153.077 94.16 149.6 96.9179 149.6 100.32C149.6 102.588 151.36 104.641 154.88 106.48C158.282 106.48 161.04 109.238 161.04 112.64C161.04 116.042 158.282 118.8 154.88 118.8H81.8399C78.4378 118.8 75.6799 116.042 75.6799 112.64C75.6799 109.238 78.4378 106.48 81.8399 106.48H47.5199C44.1178 106.48 41.3599 103.722 41.3599 100.32C41.3599 96.9179 44.1178 94.16 47.5199 94.16H82.7199C86.1219 94.16 88.8799 91.4021 88.8799 88C88.8799 84.5979 86.1219 81.84 82.7199 81.84H60.7199C57.3178 81.84 54.5599 79.0821 54.5599 75.68C54.5599 72.2779 57.3178 69.52 60.7199 69.52H95.9199C92.5178 69.52 89.7599 66.7621 89.7599 63.36C89.7599 59.9579 92.5178 57.2 95.9199 57.2H182.16ZM182.16 81.84C185.562 81.84 188.32 84.5979 188.32 88C188.32 91.4021 185.562 94.16 182.16 94.16C178.758 94.16 176 91.4021 176 88C176 84.5979 178.758 81.84 182.16 81.84Z" fill="#EAEEF2"/>
  <path fill-rule="evenodd" clip-rule="evenodd" d="M135.231 56.32L143.417 116.022L144.152 122.011C144.389 123.941 143.017 125.697 141.088 125.934L89.5545 132.261C87.625 132.498 85.8687 131.126 85.6318 129.197L77.6979 64.5803C77.5794 63.6156 78.2655 62.7374 79.2303 62.619C79.2364 62.6182 79.2425 62.6175 79.2486 62.6168L83.5239 62.1372M86.981 61.7494L91.0176 61.2966L86.981 61.7494Z" fill="white"/>
  <path d="M136.47 56.1502C136.376 55.4662 135.745 54.9878 135.061 55.0816C134.377 55.1754 133.899 55.8058 133.993 56.4898L136.47 56.1502ZM143.417 116.022L144.658 115.869C144.657 115.863 144.656 115.858 144.655 115.852L143.417 116.022ZM144.152 122.011L145.393 121.859L144.152 122.011ZM141.088 125.934L141.24 127.175L141.088 125.934ZM89.5545 132.261L89.7068 133.502L89.5545 132.261ZM85.6318 129.197L86.8724 129.044L85.6318 129.197ZM77.6979 64.5803L76.4572 64.7327L77.6979 64.5803ZM79.2486 62.6168L79.3879 63.859L79.2486 62.6168ZM83.6633 63.3795C84.3493 63.3025 84.8431 62.684 84.7661 61.9979C84.6892 61.3118 84.0706 60.8181 83.3846 60.895L83.6633 63.3795ZM86.8417 60.5072C86.1557 60.5842 85.6619 61.2027 85.7388 61.8888C85.8158 62.5748 86.4343 63.0686 87.1204 62.9917L86.8417 60.5072ZM91.157 62.5389C91.843 62.4619 92.3368 61.8434 92.2599 61.1573C92.1829 60.4712 91.5644 59.9775 90.8783 60.0544L91.157 62.5389ZM133.993 56.4898L142.178 116.191L144.655 115.852L136.47 56.1502L133.993 56.4898ZM142.176 116.174L142.912 122.163L145.393 121.859L144.658 115.869L142.176 116.174ZM142.912 122.163C143.064 123.408 142.18 124.54 140.935 124.693L141.24 127.175C143.855 126.854 145.714 124.474 145.393 121.859L142.912 122.163ZM140.935 124.693L89.4022 131.021L89.7068 133.502L141.24 127.175L140.935 124.693ZM89.4022 131.021C88.1578 131.173 87.0252 130.289 86.8724 129.044L84.3911 129.349C84.7121 131.964 87.0921 133.823 89.7068 133.502L89.4022 131.021ZM86.8724 129.044L78.9386 64.428L76.4572 64.7327L84.3911 129.349L86.8724 129.044ZM78.9386 64.428C78.9042 64.1484 79.1031 63.894 79.3826 63.8597L79.0779 61.3783C77.428 61.5809 76.2546 63.0827 76.4572 64.7327L78.9386 64.428ZM79.3826 63.8597C79.3844 63.8594 79.3861 63.8592 79.3879 63.859L79.1092 61.3746C79.0988 61.3758 79.0884 61.377 79.0779 61.3783L79.3826 63.8597ZM79.3879 63.859L83.6633 63.3795L83.3846 60.895L79.1092 61.3746L79.3879 63.859ZM87.1204 62.9917L91.157 62.5389L90.8783 60.0544L86.8417 60.5072L87.1204 62.9917Z" fill="#57606A"/>
  <path fill-rule="evenodd" clip-rule="evenodd" d="M133.003 60.0769L140.413 114.183L141.079 119.611C141.294 121.359 140.067 122.949 138.339 123.161L92.1901 128.827C90.4622 129.04 88.8873 127.794 88.6726 126.045L81.5299 67.8722C81.3953 66.7758 82.1749 65.778 83.2712 65.6433L88.7421 64.9716" fill="#EAEEF2"/>
  <path d="M95.1211 48C95.1211 46.4812 96.3523 45.25 97.8711 45.25H137.282C138.011 45.25 138.711 45.5395 139.226 46.0549L150.775 57.5965C151.291 58.1123 151.581 58.812 151.581 59.5416V113.92C151.581 115.439 150.35 116.67 148.831 116.67H97.8711C96.3523 116.67 95.1211 115.439 95.1211 113.92V48Z" fill="white" stroke="#57606A" stroke-width="2.5"/>
  <path d="M137.871 46.1145V56.32C137.871 57.778 139.053 58.96 140.511 58.96H147.493" stroke="#57606A" stroke-width="2.5" stroke-linecap="round" stroke-linejoin="round"/>
  <path d="M103.84 103.84H126.72M103.84 58.96H126.72H103.84ZM103.84 69.52H141.68H103.84ZM103.84 80.96H141.68H103.84ZM103.84 92.4H141.68H103.84Z" stroke="#8C959F" stroke-width="2.5" stroke-linecap="round" stroke-linejoin="round"/>
</svg>