<svg width="24" height="24" viewBox="0 0 24 24" fill="none" xmlns="http://www.w3.org/2000/svg">
<path fill-rule="evenodd" clip-rule="evenodd" d="M6.99985 7.00594C6.99985 9.76159 9.24666 12 11.9991 12C14.753 12 16.9998 9.76159 16.9998 7.00594C16.9998 4.2384 14.753 2 11.9991 2C9.24666 2 6.99985 4.2384 6.99985 7.00594ZM9.54377 7.00594C9.54377 5.64001 10.6464 4.53567 11.9991 4.53567C13.3532 4.53567 14.4559 5.64001 14.4545 7.00594C14.4545 8.35998 13.3518 9.46432 11.9991 9.46432C10.6464 9.46432 9.54377 8.35998 9.54377 7.00594ZM16.3616 14.9911C17.5971 14.1659 18.1376 13.6828 17.6617 12.6714C17.3808 12.0976 16.6115 11.613 15.5937 12.4473C15.5937 12.4473 14.2178 13.5844 11.9982 13.5844C9.77851 13.5844 8.40266 12.4473 8.40266 12.4473C7.38341 11.6176 6.61825 12.0976 6.33465 12.6714C5.86433 13.6828 6.40626 14.1643 7.64033 14.9941V14.9956C8.67784 15.68 10.1071 15.951 11.0505 16.0525L10.2587 16.8641L7.36655 19.8636C6.30938 20.9871 8.02922 22.745 9.09902 21.6593C9.73624 20.9881 10.6363 20.0534 11.5982 19.0544C11.7278 18.9198 11.8585 18.7841 11.9898 18.6478L14.8818 21.6563C15.9488 22.7374 17.6701 20.9643 16.6017 19.859C16.3797 19.6288 16.1289 19.3675 15.8563 19.0837C15.2272 18.4286 14.4824 17.6529 13.7096 16.8595L12.929 16.0494C13.8612 15.9465 15.3114 15.6906 16.3616 14.9911Z" fill="white"/>
</svg>
