<svg width="28" height="28" viewBox="0 0 28 28" fill="none" xmlns="http://www.w3.org/2000/svg">
<rect width="28" height="28" rx="14" fill="#EA642B"/>
<path fill-rule="evenodd" clip-rule="evenodd" d="M7.45455 22H11.8182C12.204 22 12.5739 21.8468 12.8467 21.574C13.1195 21.3012 13.2727 20.9312 13.2727 20.5455V16.1818C13.2727 15.796 13.1195 15.4261 12.8467 15.1533C12.5739 14.8805 12.204 14.7273 11.8182 14.7273H7.45455C7.06878 14.7273 6.69881 14.8805 6.42603 15.1533C6.15325 15.4261 6 15.796 6 16.1818V20.5455C6 20.9312 6.15325 21.3012 6.42603 21.574C6.69881 21.8468 7.06878 22 7.45455 22ZM7.45455 16.1818H11.8182V20.5455H7.45455V16.1818ZM7.45455 13.2727H11.8182C12.204 13.2727 12.5739 13.1195 12.8467 12.8467C13.1195 12.5739 13.2727 12.204 13.2727 11.8182V7.45455C13.2727 7.06878 13.1195 6.69881 12.8467 6.42603C12.5739 6.15325 12.204 6 11.8182 6H7.45455C7.06878 6 6.69881 6.15325 6.42603 6.42603C6.15325 6.69881 6 7.06878 6 7.45455V11.8182C6 12.204 6.15325 12.5739 6.42603 12.8467C6.69881 13.1195 7.06878 13.2727 7.45455 13.2727ZM7.45455 7.45455H11.8182V11.8182H7.45455V7.45455ZM16.1818 13.2727H20.5455C20.9312 13.2727 21.3012 13.1195 21.574 12.8467C21.8468 12.5739 22 12.204 22 11.8182V7.45455C22 7.06878 21.8468 6.69881 21.574 6.42603C21.3012 6.15325 20.9312 6 20.5455 6H16.1818C15.796 6 15.4261 6.15325 15.1533 6.42603C14.8805 6.69881 14.7273 7.06878 14.7273 7.45455V11.8182C14.7273 12.204 14.8805 12.5739 15.1533 12.8467C15.4261 13.1195 15.796 13.2727 16.1818 13.2727ZM16.1818 7.45455H20.5455V11.8182H16.1818V7.45455ZM17.6364 21.2727C17.6364 21.6744 17.962 22 18.3636 22C18.7653 22 19.0909 21.6744 19.0909 21.2727V19.0909H21.2727C21.6744 19.0909 22 18.7653 22 18.3636C22 17.962 21.6744 17.6364 21.2727 17.6364H19.0909V15.4545C19.0909 15.0529 18.7653 14.7273 18.3636 14.7273C17.962 14.7273 17.6364 15.0529 17.6364 15.4545V17.6364H15.4545C15.0529 17.6364 14.7273 17.962 14.7273 18.3636C14.7273 18.7653 15.0529 19.0909 15.4545 19.0909H17.6364V21.2727Z" fill="white"/>
</svg>
