<svg xmlns="http://www.w3.org/2000/svg" width="25" height="24" viewBox="0 0 25 24" fill="none">
  <path fill-rule="evenodd" clip-rule="evenodd" d="M12.5 3.75C12.9142 3.75 13.25 4.08579 13.25 4.5V11.25H20C20.4142 11.25 20.75 11.5858 20.75 12C20.75 12.4142 20.4142 12.75 20 12.75H13.25V19.5C13.25 19.9142 12.9142 20.25 12.5 20.25C12.0858 20.25 11.75 19.9142 11.75 19.5V12.75H5C4.58579 12.75 4.25 12.4142 4.25 12C4.25 11.5858 4.58579 11.25 5 11.25H11.75V4.5C11.75 4.08579 12.0858 3.75 12.5 3.75Z" fill="white"/>
</svg>