<svg xmlns="http://www.w3.org/2000/svg" width="25" height="25" viewBox="0 0 25 25" fill="none">
  <path fill-rule="evenodd" clip-rule="evenodd" d="M3.5 4.91504C3.5 3.87951 4.33947 3.04004 5.375 3.04004H9.875C10.9105 3.04004 11.75 3.87951 11.75 4.91504V9.41504C11.75 10.4506 10.9105 11.29 9.875 11.29H5.375C4.33947 11.29 3.5 10.4506 3.5 9.41504V4.91504ZM5.375 4.54004C5.16789 4.54004 5 4.70793 5 4.91504V9.41504C5 9.62215 5.16789 9.79004 5.375 9.79004H9.875C10.0821 9.79004 10.25 9.62215 10.25 9.41504V4.91504C10.25 4.70793 10.0821 4.54004 9.875 4.54004H5.375ZM13.25 4.91504C13.25 3.87951 14.0895 3.04004 15.125 3.04004H19.625C20.6605 3.04004 21.5 3.87951 21.5 4.91504V9.41504C21.5 10.4506 20.6605 11.29 19.625 11.29H15.125C14.0895 11.29 13.25 10.4506 13.25 9.41504V4.91504ZM15.125 4.54004C14.9179 4.54004 14.75 4.70793 14.75 4.91504V9.41504C14.75 9.62215 14.9179 9.79004 15.125 9.79004H19.625C19.8321 9.79004 20 9.62215 20 9.41504V4.91504C20 4.70793 19.8321 4.54004 19.625 4.54004H15.125ZM6.5 6.79004C6.5 6.37583 6.83579 6.04004 7.25 6.04004H8C8.41421 6.04004 8.75 6.37583 8.75 6.79004V7.54004C8.75 7.95425 8.41421 8.29004 8 8.29004H7.25C6.83579 8.29004 6.5 7.95425 6.5 7.54004V6.79004ZM16.25 6.79004C16.25 6.37583 16.5858 6.04004 17 6.04004H17.75C18.1642 6.04004 18.5 6.37583 18.5 6.79004V7.54004C18.5 7.95425 18.1642 8.29004 17.75 8.29004H17C16.5858 8.29004 16.25 7.95425 16.25 7.54004V6.79004ZM3.5 14.665C3.5 13.6295 4.33947 12.79 5.375 12.79H9.875C10.9105 12.79 11.75 13.6295 11.75 14.665V19.165C11.75 20.2006 10.9105 21.04 9.875 21.04H5.375C4.33947 21.04 3.5 20.2006 3.5 19.165V14.665ZM5.375 14.29C5.16789 14.29 5 14.4579 5 14.665V19.165C5 19.3721 5.16789 19.54 5.375 19.54H9.875C10.0821 19.54 10.25 19.3721 10.25 19.165V14.665C10.25 14.4579 10.0821 14.29 9.875 14.29H5.375ZM13.25 13.54C13.25 13.1258 13.5858 12.79 14 12.79H14.75C15.1642 12.79 15.5 13.1258 15.5 13.54V14.29C15.5 14.7043 15.1642 15.04 14.75 15.04H14C13.5858 15.04 13.25 14.7043 13.25 14.29V13.54ZM19.25 13.54C19.25 13.1258 19.5858 12.79 20 12.79H20.75C21.1642 12.79 21.5 13.1258 21.5 13.54V14.29C21.5 14.7043 21.1642 15.04 20.75 15.04H20C19.5858 15.04 19.25 14.7043 19.25 14.29V13.54ZM6.5 16.54C6.5 16.1258 6.83579 15.79 7.25 15.79H8C8.41421 15.79 8.75 16.1258 8.75 16.54V17.29C8.75 17.7043 8.41421 18.04 8 18.04H7.25C6.83579 18.04 6.5 17.7043 6.5 17.29V16.54ZM16.25 16.54C16.25 16.1258 16.5858 15.79 17 15.79H17.75C18.1642 15.79 18.5 16.1258 18.5 16.54V17.29C18.5 17.7043 18.1642 18.04 17.75 18.04H17C16.5858 18.04 16.25 17.7043 16.25 17.29V16.54ZM13.25 19.54C13.25 19.1258 13.5858 18.79 14 18.79H14.75C15.1642 18.79 15.5 19.1258 15.5 19.54V20.29C15.5 20.7043 15.1642 21.04 14.75 21.04H14C13.5858 21.04 13.25 20.7043 13.25 20.29V19.54ZM19.25 19.54C19.25 19.1258 19.5858 18.79 20 18.79H20.75C21.1642 18.79 21.5 19.1258 21.5 19.54V20.29C21.5 20.7043 21.1642 21.04 20.75 21.04H20C19.5858 21.04 19.25 20.7043 19.25 20.29V19.54Z" fill="#EA642B"/>
</svg>