<svg xmlns="http://www.w3.org/2000/svg" width="16" height="16" viewBox="0 0 16 16" fill="none">
  <path fill-rule="evenodd" clip-rule="evenodd" d="M10.7999 3.9503C13.4783 5.49669 14.396 8.9216 12.8496 11.6C11.3032 14.2785 7.8783 15.1962 5.19986 13.6498C2.52142 12.1034 1.60372 8.67848 3.15012 6.00004C3.28484 5.7667 3.43381 5.54672 3.59531 5.34058C3.7566 5.13469 4.0678 5.16582 4.22981 5.37114C4.45199 5.65272 4.70505 5.90881 4.98387 6.13431C5.24998 6.34953 5.61327 6.09574 5.60253 5.75366C5.60093 5.70269 5.60012 5.65153 5.60012 5.60017C5.60012 4.86534 5.76524 4.16907 6.06041 3.54645C6.48693 2.64677 7.18499 1.90086 8.04873 1.41458C8.24632 1.30334 8.4891 1.40196 8.5903 1.60487C9.06387 2.55436 9.81214 3.38004 10.7999 3.9503ZM11.2001 9.6002C11.2001 11.3675 9.76743 12.8002 8.00012 12.8002C6.46949 12.8002 5.18338 11.6814 4.87223 10.2549C4.79738 9.91168 5.22383 9.74012 5.52326 9.92377C5.91209 10.1622 6.34994 10.3173 6.8044 10.375C7.0465 10.4057 7.22897 10.1834 7.21195 9.9399C7.2041 9.82769 7.20012 9.71441 7.20012 9.6002C7.20012 8.45868 7.59859 7.41022 8.26403 6.58635C8.34708 6.48353 8.47927 6.43306 8.60905 6.45806C10.0851 6.74244 11.2001 8.04111 11.2001 9.6002Z" fill="#F5A524"/>
</svg>