<svg xmlns="http://www.w3.org/2000/svg" width="20" height="20" viewBox="0 0 20 20" fill="none">
  <path d="M2.06936 0.883182C1.76861 0.958368 1.54305 1.08726 1.31391 1.3164C1.08119 1.54912 0.937976 1.80332 0.873531 2.11481C0.819826 2.37975 0.819826 7.91492 0.873531 8.17987C1.00242 8.7921 1.50009 9.28976 2.1159 9.42224C2.38084 9.47594 7.91243 9.47952 8.18096 9.42224C8.79677 9.29334 9.29443 8.79568 9.42333 8.17987C9.47703 7.91492 9.47703 2.37975 9.42333 2.11481C9.29443 1.499 8.79677 1.00133 8.18096 0.87244C7.89811 0.811575 2.31282 0.822316 2.06936 0.883182ZM5.41695 3.08866C5.66399 3.21397 5.70338 3.34286 5.70338 4.03744V4.62819H6.29413C6.98871 4.62819 7.1176 4.66758 7.24291 4.91462C7.336 5.09721 7.33242 5.24759 7.23575 5.42302C7.09612 5.66648 6.98155 5.70229 6.29413 5.70229H5.70338V6.29662C5.70338 6.84799 5.69622 6.90169 5.62461 7.03416C5.47424 7.29911 5.17349 7.38145 4.90855 7.23466C4.66509 7.09503 4.62928 6.98046 4.62928 6.29304V5.70229H4.03495C3.48358 5.70229 3.42988 5.69513 3.2974 5.62352C2.93579 5.41944 2.93579 4.91104 3.2974 4.70696C3.42988 4.63535 3.48358 4.62819 4.03495 4.62819H4.62928V4.0267C4.63286 3.34286 4.6615 3.24619 4.90139 3.10298C5.07324 2.99915 5.23078 2.99557 5.41695 3.08866Z" fill="#6E7781"/>
  <path d="M11.7722 0.883182C11.4715 0.958368 11.2459 1.08726 11.0168 1.3164C10.7841 1.54912 10.6409 1.80332 10.5764 2.11481C10.5227 2.37975 10.5227 7.91492 10.5764 8.17987C10.7053 8.7921 11.203 9.28976 11.8188 9.42224C12.0837 9.47594 17.6153 9.47952 17.8838 9.42224C18.4997 9.29334 18.9973 8.79568 19.1262 8.17987C19.1799 7.91492 19.1799 2.37975 19.1262 2.11481C18.9973 1.499 18.4997 1.00133 17.8838 0.87244C17.601 0.811575 12.0157 0.822316 11.7722 0.883182ZM16.731 4.6998C16.8921 4.78215 17.0174 4.98622 17.0174 5.16882C17.0174 5.33351 16.8778 5.55549 16.7238 5.63426C16.5985 5.69871 16.4875 5.70229 14.8477 5.70229C13.1113 5.70229 13.1077 5.70229 12.9645 5.62352C12.6029 5.41944 12.5993 4.92894 12.9573 4.71412L13.097 4.62819H14.8441C16.5233 4.62819 16.5949 4.63177 16.731 4.6998Z" fill="#6E7781"/>
  <path d="M2.06936 10.586C1.76861 10.6612 1.54305 10.7901 1.31391 11.0192C1.08119 11.2519 0.937976 11.5061 0.873531 11.8176C0.819826 12.0826 0.819826 17.6177 0.873531 17.8827C1.00242 18.4949 1.50009 18.9926 2.1159 19.1251C2.38084 19.1788 7.91243 19.1823 8.18096 19.1251C8.79677 18.9962 9.29443 18.4985 9.42333 17.8827C9.47703 17.6177 9.47703 12.0826 9.42333 11.8176C9.29443 11.2018 8.79677 10.7042 8.18096 10.5753C7.89811 10.5144 2.31282 10.5251 2.06936 10.586ZM4.22829 13.2032C4.30347 13.2354 4.53261 13.4288 4.76175 13.6615L5.16633 14.0589L5.58523 13.6436C6.06141 13.1746 6.19746 13.103 6.45166 13.1817C6.62352 13.2319 6.80253 13.4252 6.83118 13.5935C6.87772 13.8262 6.79537 13.9622 6.35499 14.4098L5.93968 14.8323L6.35499 15.2512C6.79537 15.7023 6.87772 15.8383 6.83118 16.071C6.80253 16.2393 6.62352 16.4327 6.45166 16.4828C6.19746 16.5615 6.06141 16.4899 5.58881 16.0209L5.16633 15.6056L4.74743 16.0209C4.29631 16.4613 4.16026 16.5436 3.92754 16.4971C3.75927 16.4685 3.56593 16.2894 3.5158 16.1176C3.43704 15.8634 3.50864 15.7273 3.97766 15.2512L4.39298 14.8323L3.97766 14.4098C3.53729 13.9658 3.45494 13.8226 3.4979 13.597C3.54087 13.3715 3.79149 13.1531 4.01347 13.1495C4.05643 13.1495 4.1531 13.1746 4.22829 13.2032Z" fill="#6E7781"/>
  <path d="M11.7722 10.586C11.4715 10.6612 11.2459 10.7901 11.0168 11.0192C10.7841 11.2519 10.6409 11.5061 10.5764 11.8176C10.5227 12.0826 10.5227 17.6177 10.5764 17.8827C10.7053 18.4949 11.203 18.9926 11.8188 19.1251C12.0837 19.1788 17.6153 19.1823 17.8838 19.1251C18.4997 18.9962 18.9973 18.4985 19.1262 17.8827C19.1799 17.6177 19.1799 12.0826 19.1262 11.8176C18.9973 11.2018 18.4997 10.7042 17.8838 10.5753C17.601 10.5144 12.0157 10.5251 11.7722 10.586ZM16.731 13.2927C16.8921 13.3751 17.0174 13.5791 17.0174 13.7617C17.0174 13.9264 16.8778 14.1484 16.7238 14.2272C16.5985 14.2916 16.4875 14.2952 14.8477 14.2952C13.1113 14.2952 13.1077 14.2952 12.9645 14.2164C12.6029 14.0124 12.5993 13.5219 12.9573 13.307L13.097 13.2211H14.8441C16.5233 13.2211 16.5949 13.2247 16.731 13.2927ZM16.731 15.4409C16.8921 15.5233 17.0174 15.7273 17.0174 15.9099C17.0174 16.0746 16.8778 16.2966 16.7238 16.3754C16.5985 16.4398 16.4875 16.4434 14.8477 16.4434C13.1113 16.4434 13.1077 16.4434 12.9645 16.3646C12.6029 16.1606 12.5993 15.6701 12.9573 15.4552L13.097 15.3693H14.8441C16.5233 15.3693 16.5949 15.3729 16.731 15.4409Z" fill="#6E7781"/>
</svg>