<svg width="100" height="100" viewBox="0 0 100 100" fill="none" xmlns="http://www.w3.org/2000/svg">
<circle cx="50" cy="50" r="50" fill="#A1A1AA"/>
<path d="M20 25H80V55.1756C80 62.9113 75.8732 70.0596 69.1743 73.9279L50 84.9999L30.8258 73.9279C24.1267 70.0596 20 62.9113 20 55.1756V25Z" fill="#FFDD2D"/>
<path fill-rule="evenodd" clip-rule="evenodd" d="M36.4668 40.8809V50.2661C37.7502 48.8169 40.0836 47.836 42.7516 47.836H45.651V58.7463C45.651 61.6489 44.8623 64.1895 43.6921 65.587H56.3037C55.136 64.1881 54.3491 61.6507 54.3491 58.7518V47.836H57.2486C59.9166 47.836 62.25 48.8169 63.5334 50.2661V40.8809H36.4668Z" fill="#333333"/>
</svg>
