<svg width="24" height="24" viewBox="0 0 24 24" fill="none" xmlns="http://www.w3.org/2000/svg">
<path d="M1.96269 11.8732L6.79269 13.5135L18.2609 6.50248C18.4274 6.40123 18.5977 6.62698 18.4544 6.75898L9.77244 14.7502L9.44994 19.224C9.44467 19.2989 9.46231 19.3737 9.50051 19.4384C9.53872 19.5031 9.59569 19.5546 9.66386 19.5862C9.73203 19.6177 9.80819 19.6278 9.88223 19.6151C9.95627 19.6024 10.0247 19.5675 10.0784 19.515L12.7514 16.8862L17.6384 20.5852C18.1649 20.9842 18.9277 20.703 19.0694 20.058L22.4722 4.60799C22.6664 3.72674 21.8024 2.98274 20.9602 3.30524L1.93869 10.5892C1.34169 10.818 1.35819 11.6677 1.96269 11.8732Z" fill="#6E7781"/>
</svg>
