<svg xmlns="http://www.w3.org/2000/svg" width="16" height="16" viewBox="0 0 16 16" fill="none">
  <path fill-rule="evenodd" clip-rule="evenodd" d="M13.1227 10.1218C13.8825 9.719 14.4001 8.91995 14.4001 8.00001C14.4001 7.08006 13.8825 6.28101 13.1226 5.87818C13.3751 5.05602 13.1761 4.12501 12.5256 3.4745C11.8751 2.824 10.9441 2.62498 10.1219 2.87744C9.71908 2.11759 8.92003 1.60001 8.0001 1.60001C7.08015 1.60001 6.2811 2.1176 5.87826 2.87746C5.05612 2.62501 4.12511 2.82403 3.47461 3.47453C2.82412 4.12503 2.62509 5.05603 2.87754 5.87817C2.11769 6.28101 1.6001 7.08006 1.6001 8.00001C1.6001 8.91995 2.11769 9.719 2.87754 10.1218C2.62509 10.944 2.82411 11.875 3.47461 12.5255C4.12511 13.176 5.05612 13.375 5.87827 13.1226C6.28111 13.8824 7.08016 14.4 8.0001 14.4C8.92004 14.4 9.7191 13.8824 10.1219 13.1226C10.9441 13.375 11.8751 13.176 12.5256 12.5255C13.1761 11.875 13.3751 10.944 13.1227 10.1218ZM11.0853 6.55291C11.2802 6.28492 11.221 5.90967 10.953 5.71476C10.685 5.51986 10.3098 5.57911 10.1149 5.8471L7.32785 9.67923L5.82436 8.17574C5.59005 7.94143 5.21015 7.94143 4.97583 8.17574C4.74152 8.41006 4.74152 8.78995 4.97583 9.02427L6.97583 11.0243C7.09991 11.1483 7.27209 11.2119 7.44703 11.1982C7.62197 11.1844 7.78213 11.0948 7.88534 10.9529L11.0853 6.55291Z" fill="#12A150"/>
</svg>