<svg width="24" height="24" viewBox="0 0 24 24" fill="none" xmlns="http://www.w3.org/2000/svg">
<g id="social/bold/vk">
<path id="Subtract" fill-rule="evenodd" clip-rule="evenodd" d="M3.40344 3.40344C2 4.80689 2 7.06571 2 11.5833V12.4167C2 16.9343 2 19.1931 3.40344 20.5965C4.80689 22 7.06571 22 11.5833 22H12.4167C16.9343 22 19.1931 22 20.5965 20.5965C22 19.1931 22 16.9343 22 12.4167V11.5833C22 7.06571 22 4.80689 20.5965 3.40344C19.1931 2 16.9343 2 12.4167 2H11.5833C7.06571 2 4.80689 2 3.40344 3.40344ZM5.95878 8.25H7.41745C7.79024 8.25 7.93049 8.41313 8.07028 8.81696C8.7837 10.8947 9.98658 12.7104 10.4811 12.7104C10.6665 12.7104 10.7516 12.625 10.7516 12.1542V10.0066C10.7181 9.39528 10.5045 9.13092 10.3463 8.9351C10.2486 8.81418 10.172 8.7194 10.172 8.58521C10.172 8.42208 10.3114 8.25 10.5432 8.25H12.8354C13.1445 8.25 13.2522 8.41525 13.2522 8.78608V11.6753C13.2522 11.9842 13.3863 12.0923 13.4791 12.0923C13.6645 12.0923 13.8191 11.9842 14.1591 11.6442C15.2099 10.4701 15.9516 8.66242 15.9516 8.66242C16.0443 8.44617 16.2154 8.25 16.5862 8.25H18.0449C18.4861 8.25 18.5787 8.47704 18.486 8.78608C18.3006 9.63579 16.5234 12.1387 16.5234 12.1387C16.3689 12.3858 16.3071 12.5095 16.5234 12.7876C16.5996 12.8942 16.7622 13.0534 16.9482 13.2356C17.1395 13.4229 17.3555 13.6345 17.5279 13.8382C18.1545 14.5429 18.6267 15.1375 18.7582 15.5472C18.8784 15.9583 18.6701 16.1667 18.2533 16.1667H16.7947C16.404 16.1667 16.2072 15.9479 15.7822 15.4751C15.602 15.2747 15.3807 15.0286 15.0862 14.7343C14.2208 13.9 13.85 13.7918 13.6336 13.7918C13.34 13.7918 13.2522 13.875 13.2522 14.2917V15.5995C13.2522 15.9583 13.1375 16.1667 12.2102 16.1667C10.6649 16.1667 8.96662 15.2287 7.76124 13.4983C5.95318 10.9645 5.45866 9.04871 5.45866 8.66242C5.45866 8.44617 5.54202 8.25 5.95878 8.25Z" fill="white"/>
</g>
</svg>
