<svg width="24" height="24" viewBox="0 0 24 24" fill="none" xmlns="http://www.w3.org/2000/svg">
<g id="social/bold/yandex">
<path id="Vector" d="M12.183 2.03704C10.8841 2.12458 9.73061 2.41414 8.74569 2.89562C8.07144 3.22559 7.61864 3.55219 7.10635 4.07071C6.45194 4.73401 6.03219 5.42088 5.75126 6.29966C5.52651 7 5.44058 7.60943 5.44058 8.49832C5.44058 9.18182 5.47363 9.54545 5.57608 10.0808C5.92973 11.8889 7.0105 13.4108 9.01671 14.9226C9.22823 15.0842 9.4034 15.229 9.4034 15.2424C9.40671 15.2559 8.42179 16.7643 7.21542 18.5926C6.01236 20.4209 5.01422 21.936 5.001 21.9562C4.97786 21.9899 5.35134 22 6.81881 22H8.66306L11.1188 18.2593C12.4705 16.2054 13.5811 14.5017 13.591 14.4781C13.6009 14.4545 13.2241 14.1751 12.6061 13.7475C10.6792 12.4242 10.0644 11.8855 9.51908 11.0539C9.17535 10.5286 8.95721 9.93603 8.86137 9.27273C8.70933 8.21549 8.79526 7.39394 9.12577 6.69697C9.60832 5.6835 10.5304 5.04714 11.8988 4.79125C12.2094 4.73064 12.4474 4.71717 13.4323 4.7037L14.5957 4.68687V13.3266V21.9663H16.2979H18V11.9832V2L15.2997 2.00337C13.8124 2.00673 12.4111 2.02357 12.183 2.03704Z" fill="white"/>
</g>
</svg>
